<svg viewBox="0 0 512 512"
    xmlns="http://www.w3.org/2000/svg">
    <linearGradient id="prefix__a" gradientTransform="matrix(1 0 0 -1 0 -15158)" gradientUnits="userSpaceOnUse" x1="0" x2="512" y1="-15414" y2="-15414">
        <stop offset="0" stop-color="#aa0c55"/>
        <stop offset=".514" stop-color="#d91470"/>u
        <stop offset="1" stop-color="#c31265"/>
    </linearGradient>
    <path d="M512 256c0 141.387-114.613 256-256 256S0 397.387 0 256 114.613 0 256 0s256 114.613 256 256zm0 0" fill="url(#prefix__a)"/>
    <path d="M411 367.68c-8.285 0-15 6.715-15 15C396 402 389.738 402 385.996 402c-7.32 0-14.02-9.898-19.91-29.418-5.77-19.11-10.008-45.043-14.316-75.133 9.378-26.765 17.058-57.129 22.972-90.965 9.563-54.699 10.707-97.586 10.754-99.386.203-8.282-6.344-15.157-14.625-15.364-8.297-.175-15.156 6.344-15.367 14.625-.024.954-1.621 55.461-14.797 117.965-8.172-39.418-21.934-72.652-40.32-97.05C276.097 95.038 243.847 78 207.129 78c-36.957 0-71.402 19.004-96.992 53.516C85.543 164.68 72 208.53 72 255s13.543 90.32 38.137 123.484C135.727 412.996 170.172 432 207.129 432c14.723 0 28.797-2.309 41.832-6.863 7.816-2.735 11.941-11.29 9.21-19.11-2.73-7.82-11.288-11.945-19.109-9.21-9.843 3.437-20.59 5.183-31.933 5.183-27.219 0-53.106-14.695-72.895-41.383C113.445 332.586 102 295.078 102 255s11.445-77.586 32.234-105.617C154.02 122.695 179.91 108 207.13 108c27.32 0 50.637 12.559 69.3 37.324 18.93 25.125 32.321 62.121 38.723 106.989 1.223 8.582 2.387 16.98 3.524 25.156.789 5.68 1.562 11.246 2.332 16.703-8.906 24.062-20.094 46.82-34.14 65.637-4.958 6.636-3.595 16.035 3.046 20.992a14.919 14.919 0 008.961 2.98c4.57 0 9.086-2.082 12.031-6.027 6.633-8.883 12.86-18.707 18.68-29.438 2.316 12.16 4.844 23.211 7.777 32.934 3.79 12.55 15.317 50.75 48.633 50.75 13.957 0 25.438-6.074 32.332-17.105 5.09-8.149 7.672-18.989 7.672-32.22 0-8.28-6.715-14.995-15-14.995zm0 0" fill="#fff"/>
</svg>