<svg id="Capa_1" enable-background="new 0 0 512 512" height="512" viewBox="0 0 512 512" width="512" xmlns="http://www.w3.org/2000/svg"><g><g><g><g><g><g><g><g><path d="m328.425 164.69-13.599-7.852c1.446-7.162 2.175-14.469 2.175-21.838s-.729-14.676-2.175-21.838l13.599-7.852c3.445-1.989 5.959-5.265 6.989-9.108s.491-7.937-1.499-11.382l-20-34.641c-4.142-7.174-13.315-9.632-20.49-5.49l-13.602 7.853c-11.053-9.795-23.856-17.194-37.821-21.856v-15.686c0-8.284-6.716-15-15-15h-40c-8.284 0-15 6.716-15 15v15.686c-13.965 4.662-26.769 12.061-37.822 21.856l-13.601-7.853c-7.174-4.144-16.349-1.685-20.49 5.49l-20 34.641c-4.142 7.174-1.684 16.348 5.49 20.49l13.598 7.851c-1.446 7.163-2.176 14.47-2.176 21.838s.729 14.676 2.176 21.838l-13.598 7.851c-7.174 4.142-9.632 13.316-5.49 20.49l20 34.641c4.142 7.175 13.315 9.633 20.49 5.49l13.601-7.853c11.053 9.796 23.856 17.194 37.822 21.856v15.688c0 8.284 6.716 15 15 15h40c8.284 0 15-6.716 15-15v-15.686c13.965-4.662 26.768-12.061 37.821-21.856l13.602 7.853c7.174 4.142 16.348 1.683 20.49-5.49l20-34.641c1.989-3.445 2.528-7.54 1.499-11.382-1.03-3.843-3.544-7.12-6.989-9.108zm-121.424 10.31c-22.091 0-40-17.909-40-40s17.909-40 40-40 40 17.909 40 40-17.909 40-40 40z" fill="#e2dff4"/></g><path d="m335.413 96.203c1.03-3.843.491-7.937-1.499-11.382l-20-34.641c-4.142-7.174-13.315-9.632-20.49-5.49l-13.602 7.853c-11.053-9.795-23.856-17.194-37.821-21.856v-15.687c0-8.284-6.716-15-15-15h-20.001v95c22.091 0 40 17.909 40 40s-17.909 40-40 40v95h20.001c8.284 0 15-6.716 15-15v-15.686c13.965-4.662 26.768-12.061 37.821-21.856l13.602 7.853c7.174 4.142 16.348 1.683 20.49-5.49l20-34.641c1.989-3.445 2.528-7.54 1.499-11.382-1.029-3.843-3.543-7.119-6.989-9.108l-13.599-7.852c1.446-7.162 2.175-14.469 2.175-21.838s-.729-14.676-2.175-21.838l13.599-7.852c3.446-1.988 5.96-5.264 6.989-9.107z" fill="#bebcdd"/></g><g><path d="m207.001 190c-30.327 0-55-24.673-55-55s24.673-55 55-55 55 24.673 55 55-24.673 55-55 55zm0-80c-13.785 0-25 11.215-25 25s11.215 25 25 25 25-11.215 25-25-11.215-25-25-25z" fill="#f1f1f4"/></g><path d="m232.001 135c0 13.785-11.215 25-25 25v30c30.327 0 55-24.673 55-55s-24.673-55-55-55v30c13.785 0 25 11.215 25 25z" fill="#e2dff4"/></g></g></g></g></g><g><g><g><g><g><g><g><path d="m504.5 406.69-13.599-7.852c1.446-7.162 2.175-14.469 2.175-21.838s-.729-14.676-2.175-21.838l13.599-7.852c3.445-1.989 5.959-5.265 6.989-9.108s.491-7.937-1.499-11.382l-20-34.641c-4.142-7.174-13.315-9.632-20.49-5.49l-13.602 7.853c-11.053-9.795-23.856-17.194-37.821-21.856v-15.686c0-8.284-6.716-15-15-15h-40c-8.284 0-15 6.716-15 15v15.686c-13.965 4.662-26.769 12.061-37.822 21.856l-13.601-7.853c-7.174-4.144-16.349-1.685-20.49 5.49l-20 34.641c-4.142 7.174-1.684 16.348 5.49 20.49l13.598 7.851c-1.446 7.163-2.176 14.47-2.176 21.838s.729 14.676 2.176 21.838l-13.598 7.851c-7.174 4.142-9.632 13.316-5.49 20.49l20 34.641c4.142 7.175 13.315 9.633 20.49 5.49l13.601-7.853c11.053 9.796 23.856 17.194 37.822 21.856v15.688c0 8.284 6.716 15 15 15h40c8.284 0 15-6.716 15-15v-15.686c13.965-4.662 26.768-12.061 37.821-21.856l13.602 7.853c7.174 4.142 16.348 1.683 20.49-5.49l20-34.641c1.989-3.445 2.528-7.54 1.499-11.382-1.029-3.843-3.543-7.12-6.989-9.108zm-121.424 10.31c-22.091 0-40-17.909-40-40s17.909-40 40-40 40 17.909 40 40-17.908 40-40 40z" fill="#acceff"/></g><path d="m511.489 338.203c1.03-3.843.491-7.937-1.499-11.382l-20-34.641c-4.142-7.174-13.315-9.632-20.49-5.49l-13.602 7.853c-11.053-9.795-23.856-17.194-37.821-21.856v-15.687c0-8.284-6.716-15-15-15h-20.001v95c22.091 0 40 17.909 40 40s-17.909 40-40 40v95h20.001c8.284 0 15-6.716 15-15v-15.686c13.965-4.662 26.768-12.061 37.821-21.856l13.602 7.853c7.174 4.142 16.348 1.683 20.49-5.49l20-34.641c1.989-3.445 2.528-7.54 1.499-11.382-1.029-3.843-3.543-7.119-6.989-9.108l-13.599-7.852c1.446-7.162 2.175-14.469 2.175-21.838s-.729-14.676-2.175-21.838l13.599-7.852c3.446-1.988 5.96-5.264 6.989-9.107z" fill="#989dec"/></g><g><path d="m383.076 432c-30.327 0-55-24.673-55-55s24.673-55 55-55 55 24.673 55 55-24.673 55-55 55zm0-80c-13.785 0-25 11.215-25 25s11.215 25 25 25 25-11.215 25-25-11.215-25-25-25z" fill="#c8ffff"/></g><path d="m408.076 377c0 13.785-11.215 25-25 25v30c30.327 0 55-24.673 55-55s-24.673-55-55-55v30c13.785 0 25 11.215 25 25z" fill="#acceff"/></g></g></g></g></g><g><path d="m215.708 416.69-10.12-5.843c.677-4.586 1.018-9.214 1.018-13.846s-.341-9.26-1.018-13.846l10.12-5.843c7.175-4.142 9.633-13.316 5.49-20.49l-20-34.641c-4.143-7.175-13.317-9.632-20.49-5.49l-10.125 5.846c-7.286-5.781-15.365-10.455-23.978-13.873v-11.664c0-8.284-6.716-15-15-15h-40c-8.284 0-15 6.716-15 15v11.662c-8.612 3.418-16.691 8.092-23.978 13.873l-10.125-5.846c-7.175-4.144-16.348-1.685-20.49 5.49l-20 34.641c-4.143 7.174-1.685 16.348 5.49 20.49l10.12 5.843c-.677 4.586-1.018 9.214-1.018 13.846s.341 9.26 1.018 13.846l-10.12 5.843c-7.175 4.142-9.633 13.316-5.49 20.49l20 34.641c4.143 7.175 13.316 9.632 20.49 5.49l10.125-5.846c7.286 5.781 15.365 10.455 23.978 13.873v11.664c0 8.284 6.716 15 15 15h40c8.284 0 15-6.716 15-15v-11.662c8.612-3.418 16.691-8.092 23.978-13.873l10.125 5.846c7.172 4.143 16.348 1.684 20.49-5.49l20-34.641c4.143-7.174 1.685-16.348-5.49-20.49zm-104.103 10.31c-16.569 0-30-13.431-30-30s13.431-30 30-30 30 13.431 30 30-13.431 30-30 30z" fill="#ff8659"/><g><path d="m215.708 416.69-10.12-5.843c.677-4.586 1.018-9.214 1.018-13.846s-.341-9.26-1.018-13.846l10.12-5.843c7.175-4.142 9.633-13.316 5.49-20.49l-20-34.641c-4.143-7.175-13.317-9.632-20.49-5.49l-10.125 5.846c-7.286-5.781-15.365-10.455-23.978-13.873v-11.664c0-8.284-6.716-15-15-15h-20v85c16.569 0 30 13.431 30 30s-13.431 30-30 30v85h20c8.284 0 15-6.716 15-15v-11.662c8.612-3.418 16.691-8.092 23.978-13.873l10.125 5.846c7.172 4.143 16.348 1.684 20.49-5.49l20-34.641c4.143-7.174 1.685-16.348-5.49-20.49z" fill="#ff6b6b"/></g><g><g><path d="m111.605 442c-24.813 0-45-20.187-45-45s20.187-45 45-45 45 20.187 45 45-20.186 45-45 45zm0-60c-8.271 0-15 6.729-15 15s6.729 15 15 15 15-6.729 15-15-6.728-15-15-15z" fill="#ffb454"/></g></g><g><path d="m111.605 352v30c8.271 0 15 6.729 15 15s-6.729 15-15 15v30c24.813 0 45-20.187 45-45s-20.186-45-45-45z" fill="#ff8659"/></g></g></g></svg>