<svg viewBox="0 0 512 512"
    xmlns="http://www.w3.org/2000/svg"
    xmlns:xlink="http://www.w3.org/1999/xlink">
    <linearGradient id="a" gradientTransform="matrix(1 0 0 -1 0 -12310)" gradientUnits="userSpaceOnUse" x1="0" x2="512" y1="-12566" y2="-12566">
        <stop offset="0" stop-color="#aa0c55"/>
        <stop offset=".514" stop-color="#d91470"/>u
        <stop offset="1" stop-color="#c31265"/>
    </linearGradient>
    <path d="m512 256c0 141.386719-114.613281 256-256 256s-256-114.613281-256-256 114.613281-256 256-256 256 114.613281 256 256zm0 0" fill="url(#a)"/>
    <path d="m354.929688 253.488281 48.574218-48.4375c12.894532-12.898437 19.996094-30.042969 19.996094-48.277343 0-18.238282-7.101562-35.382813-19.996094-48.277344-12.894531-12.894532-30.039062-19.996094-48.277344-19.996094-18.234374 0-35.378906 7.101562-48.273437 19.996094l-48.324219 48.324218-64.214844-63.949218c-2.8125-2.800782-6.617187-4.371094-10.585937-4.371094-.015625 0-.03125 0-.050781 0-3.984375.011719-7.800782 1.613281-10.605469 4.445312l-80.328125 81.113282c-5.816406 5.875-5.785156 15.351562.070312 21.183594l63.773438 63.515624-34.734375 34.738282c-1.828125 1.828125-3.152344 4.09375-3.84375 6.582031l-29.058594 104.398437c-1.457031 5.226563.023438 10.832032 3.871094 14.660157 2.851563 2.832031 6.667969 4.363281 10.578125 4.363281 1.367188 0 2.746094-.1875 4.097656-.570312l104.398438-29.652344c5.109375-1.453125 9.074218-5.503906 10.414062-10.644532 1.34375-5.144531-.140625-10.613281-3.890625-14.375l-64.351562-64.546874 150.414062-150.417969 54.09375 54.09375-115.921875 115.605469c-2.828125 2.820312-4.414062 6.648437-4.410156 10.640624.007812 3.988282 1.601562 7.816407 4.433594 10.625l75.449218 74.886719c2.808594 2.792969 6.609376 4.355469 10.566407 4.355469h.0625c3.984375-.015625 7.792969-1.617188 10.59375-4.445312l79.707031-80.488282c5.820312-5.875 5.785156-15.347656-.070312-21.183594zm-175.65625 117.894531-54.152344 15.382813 15.164062-54.488281zm-54.589844-186.839843 59.21875-59.800781 17.570312 17.496093-24.011718 24.40625c-5.8125 5.90625-5.734376 15.402344.171874 21.210938 2.921876 2.875 6.71875 4.308593 10.519532 4.308593 3.878906 0 7.757812-1.496093 10.691406-4.480468l23.882812-24.273438 14.6875 14.625-59.511718 59.511719zm201.113281-52.464844 2.367187-2.367187c7.230469-7.230469 16.839844-11.210938 27.0625-11.210938 10.222657 0 19.835938 3.980469 27.0625 11.210938 7.230469 7.226562 11.210938 16.839843 11.210938 27.0625 0 10.222656-3.980469 19.832031-11.195312 27.046874l-2.386719 2.378907zm2.902344 255.195313-54.085938-53.683594 59.074219-58.917969 14.5 14.441406-23.351562 23.523438c-5.839844 5.878906-5.804688 15.375.074218 21.210937 2.925782 2.90625 6.746094 4.355469 10.570313 4.355469 3.855469 0 7.710937-1.480469 10.644531-4.433594l23.316406-23.484375 17.875 17.800782zm0 0" fill="#fff"/>
</svg>