<svg viewBox="0 0 512 512"
    xmlns="http://www.w3.org/2000/svg"
    xmlns:xlink="http://www.w3.org/1999/xlink">
    <linearGradient id="a" gradientTransform="matrix(1 0 0 -1 0 -19430)" gradientUnits="userSpaceOnUse" x1="0" x2="512" y1="-19686" y2="-19686">
        <stop offset="0" stop-color="#aa0c55"/>
        <stop offset=".514" stop-color="#d91470"/>u
        <stop offset="1" stop-color="#c31265"/>
    </linearGradient>
    <path d="m512 256c0 141.386719-114.613281 256-256 256s-256-114.613281-256-256 114.613281-256 256-256 256 114.613281 256 256zm0 0" fill="url(#a)"/>
    <path d="m322.195312 209.96875c16.082032-14.976562 26.164063-36.320312 26.164063-59.976562 0-45.210938-36.78125-81.992188-81.992187-81.992188-45.097657 0-81.808594 36.605469-81.988282 81.664062l-.347656 8.347657c-.007812.207031-.011719.417969-.011719.625v230.507812c0 10.394531-8.460937 18.855469-18.859375 18.855469-10.394531 0-18.855468-8.460938-18.855468-18.855469 0-8.285156-6.714844-15-15-15-8.28125 0-15 6.714844-15 15 0 26.9375 21.917968 48.855469 48.855468 48.855469 26.941406 0 48.859375-21.917969 48.859375-48.855469v-19.613281c17.601563 16.960938 41.519531 27.410156 67.835938 27.410156 24.785156 0 48.429687-9.285156 66.582031-26.148437 6.066406-5.636719 6.417969-15.128907.777344-21.195313-5.636719-6.074218-15.128906-6.421875-21.199219-.78125-12.582031 11.6875-28.972656 18.125-46.160156 18.125-37.40625 0-67.835938-30.433594-67.835938-67.839844v-140.15625l.34375-8.332031c.011719-.207031.015625-.414062.015625-.621093 0-28.667969 23.320313-51.992188 51.988282-51.992188 28.671874 0 51.992187 23.324219 51.992187 51.992188 0 27.128906-20.886719 49.472656-47.425781 51.792968l-5.175782.210938c-8.15625.332031-14.550781 7.128906-14.386718 15.292968.167968 8.160157 6.832031 14.691407 14.996094 14.691407 2.164062 0 4.3125-.082031 6.433593-.25l10.574219-.429688c36.703125.8125 66.320312 30.902344 66.320312 67.800781 0 8.285157 6.714844 15 15 15 8.285157 0 15-6.714843 15-15 0-39.574218-23.621093-73.738281-57.5-89.132812zm0 0" fill="#fff"/>
</svg>