<svg id="Capa_1" enable-background="new 0 0 510 510" height="512" viewBox="0 0 510 510" width="512" xmlns="http://www.w3.org/2000/svg"><g><g><g><path d="m460.756 353.399c15.601 39-13.799 81.301-55.199 81.601h-10.501l-20.099 60c-30 0-55.8-22.5-59.399-52.5l-2.401-18.6-17.701 6.599c-12.9 4.801-27.299 5.4-40.499 2.701-16.5-3.6-31.8-12.601-42.599-25.501l-6-7.2-9 2.401c-16.8 4.2-33.9 2.401-50.101-5.7l-6.899-3.3-6.899 3.6c-9 5.099-18.6 7.5-28.5 7.5-32.999 0-60-27.001-60-60 0-19.501 9.6-37.8 26.1-49.2l4.2-2.999 1.5-5.101c5.397-19.2 23.098-32.7 42.897-32.7 3.3 0 3.9.3 15.901 1.199l3.9-11.1c14.399-42.001 62.699-62.1 103.2-42.299l6.899 3.3 5.4-2.701v-.3l1.5-.599c26.1-14.401 62.1-5.7 78.6 19.499l6 9.001 10.499-3.001c69.001-18.6 131.4 47.401 108.9 114.901l-1.8 5.4z" fill="#fabe2c"/></g></g><path d="m460.756 353.399c15.601 39-13.799 81.301-55.199 81.601h-10.501l-20.099 60c-30 0-55.8-22.5-59.399-52.5l-2.401-18.6-17.701 6.599c-12.9 4.801-27.299 5.4-40.499 2.701v-230.101l1.5-.599c26.1-14.401 62.1-5.7 78.6 19.499l6 9.001 10.499-3.001c69.001-18.6 131.4 47.401 108.9 114.901l-1.8 5.4z" fill="#ff9100"/><g id="Brain_2_"><g><path d="m116.836 97.266c7.5-3.501 10.752-12.422 7.251-19.937-1.699-3.633-1.875-7.705-.498-11.47 1.362-3.75 4.116-6.753 7.734-8.452 7.515-3.486 16.479-.234 19.951 7.251 2.681 5.728 1.45 12.568-3.018 16.992-9.067 8.95-11.543 22.72-5.142 36.504 2.402 5.112 7.104 7.676 12.217 7.676 2.402 0 4.878-.557 7.266-1.685 7.5-3.516 10.269-13.652 6.738-21.152 13.477-13.345 17.139-33.838 9.126-51.021-10.474-22.485-37.295-32.227-59.81-21.753-10.884 5.083-19.146 14.092-23.262 25.386-4.102 11.294-3.574 23.511 1.509 34.409 3.503 7.486 12.409 10.709 19.938 7.252z" fill="#474f54"/><path d="m169.377 138.972c-7.509 3.501-10.757 12.426-7.256 19.935 3.501 7.507 12.427 10.756 19.935 7.255s10.756-12.426 7.255-19.933c-3.502-7.51-12.427-10.758-19.934-7.257z" fill="#474f54"/><path d="m338.702 71.909c7.515 3.53 16.45.264 19.937-7.251 3.486-7.485 12.451-10.752 19.937-7.251 3.633 1.699 6.387 4.702 7.749 8.452 1.377 3.765 1.201 7.837-.498 11.484-2.666 5.713-8.467 9.272-14.971 8.599-12.51-.938-24.873 5.801-31.216 19.468-3.516 7.5.352 15.264 7.852 18.779 1.802.85 3.721 1.23 5.64 1.23 6.108 0 12.29-3.896 14.956-9.595 18.823 1.611 36.929-8.657 44.927-25.811 5.083-10.898 5.61-23.115 1.509-34.409-4.116-11.294-12.378-20.303-23.276-25.386-22.456-10.474-49.321-.732-59.795 21.753-3.503 7.516-.251 16.437 7.249 19.938z" fill="#32393f"/><path d="m327.858 166.161c7.507 3.501 16.434.253 19.935-7.255 3.501-7.509.253-16.434-7.256-19.935-7.507-3.501-16.432-.253-19.933 7.256-3.502 7.508-.253 16.433 7.254 19.934z" fill="#32393f"/><path d="m444.857 354.899c17.399 34.801-14.101 69.901-47.1 64.2-7.2-1.199-14.399 3.3-16.8 10.201l-16.5 49.499c-19.801-4.799-34.501-22.5-34.501-43.799v-8.401c11.4-10.499 20.099-23.399 24.901-37.8 22.8-3.3 43.5-16.199 55.199-36.299 3.9-7.2 1.5-16.201-5.7-20.4-7.2-4.2-16.199-1.8-20.4 5.4-8.099 13.799-23.099 22.5-39 22.5s-30.901-8.701-39-22.5c-4.2-7.2-13.2-9.6-20.4-5.4-7.2 4.199-9.6 13.2-5.7 20.4 9.899 16.8 25.499 28.5 43.5 34.2-20.846 42.729-66.596 31.2-68.401 30.599-9-2.401-17.401-6.599-24.6-12.9 4.801-3.3 9.3-6.899 13.2-10.8 6-5.7 6-15.3 0-21.301-5.7-5.7-15.3-5.7-21.301 0-17.397 17.702-47.697 24.902-74.097 8.402-5.099-3.301-11.7-3.001-16.8.599-7.8 5.7-17.1 8.701-26.4 8.701-24.901 0-45-20.101-45-45 0-15.901 8.699-30.901 23.101-39 3.9-2.1 6.599-6.301 7.5-10.801 2.399-14.399 14.7-25.199 29.399-24.899 0 24 9.3 46.5 26.4 63.3 6 6 15.3 5.7 21.301 0 5.7-5.7 5.7-15.3 0-21.301-13.5-13.2-19.801-31.8-17.1-51 1.8-2.999 8.699-51.299 59.399-51.299 4.799 0 9.6.899 14.099 2.1-8.699 12.599-14.099 27.299-14.099 42.9 0 8.399 6.599 15 15 15s15-6.601 15-15c0-14.401 6-25.8 15-33.3 16.199-14.401 42.599-15.901 60.901 1.8 1.199.899 2.098 1.8 3.3 2.999-6.601 3.9-12.9 8.699-18.6 14.399s-5.7 15.3.3 21c5.698 6 15.298 6 20.999 0 6.901-6.899 15-12.299 24.001-16.199h.298c60.3-25.201 123.001 34.799 98.401 96.899-1.5 4.202-1.5 8.701.3 12.301zm-97.2-141.299c-19.501-29.101-60.3-41.4-92.701-27.001-2.1.901-3.9 1.8-5.7 2.701-48.3-23.701-106.5-.3-123.9 51-29.099-2.701-55.199 15.899-62.999 43.2-20.101 14.099-32.401 36.9-32.401 61.5 0 41.4 33.6 75 75 75 12.599 0 24.6-3.3 35.7-9.3 18.6 9.3 39.6 11.699 60.3 6.599 1.199 1.201 18.3 24.3 54 30.601 5.7 1.8 21 3.3 38.401-.901 2.399-.599 4.799-1.5 7.2-2.399 4.799 36.899 36.299 65.4 74.399 65.4 6.599 0 12.299-4.2 14.099-10.201l16.802-49.799c51.899-.601 88.198-53.401 68.699-102.301 26.401-79.199-46.799-155.7-126.899-134.099z" fill="#fed843"/></g></g><g><path d="m299.956 45c0 18.9-12.001 36-29.7 42.299 0 8.401-6.899 16.5-15.3 16.5-8.101 0-15-5.4-15-13.799 0-12.601 5.7-23.101 15-28.5 1.5-.901 3.3-1.8 5.099-2.401 6-2.1 9.901-7.8 9.901-14.099 0-8.401-6.599-15-15-15s-15 6.599-15 15c0 8.399-6.599 15-15 15s-15-6.601-15-15c0-24.901 20.099-45 45-45s45 20.099 45 45z" fill="#474f54"/></g><g><circle cx="254.956" cy="135" fill="#474f54" r="15"/></g><path d="m269.956 135c0-8.286-6.716-15-15-15v30c8.284 0 15-6.716 15-15z" fill="#32393f"/><path d="m299.956 45c0 18.9-12.001 36-29.7 42.299 0 8.401-6.899 16.5-15.3 16.5v-42.299c1.5-.901 3.3-1.8 5.099-2.401 6-2.1 9.901-7.8 9.901-14.099 0-8.401-6.599-15-15-15v-30c24.901 0 45 20.099 45 45z" fill="#32393f"/><path d="m474.557 347.699c19.499 48.9-16.8 101.7-68.699 102.301l-16.802 49.799c-1.8 6-7.5 10.201-14.099 10.201-38.101 0-69.6-28.5-74.399-65.4-2.401.899-4.801 1.8-7.2 2.399-17.401 4.2-32.701 2.701-38.401.901v-30.601c1.804.601 47.555 12.13 68.401-30.599-18.001-5.7-33.602-17.401-43.5-34.2-3.9-7.2-1.5-16.201 5.7-20.4 7.2-4.2 16.199-1.8 20.4 5.4 8.099 13.799 23.099 22.5 39 22.5s30.901-8.701 39-22.5c4.2-7.2 13.2-9.6 20.4-5.4 7.2 4.199 9.6 13.2 5.7 20.4-11.699 20.099-32.399 32.999-55.199 36.299-4.801 14.401-13.5 27.301-24.901 37.8v8.401c0 21.299 14.7 39 34.501 43.799l16.5-49.499c2.401-6.901 9.6-11.4 16.8-10.201 32.999 5.7 64.499-29.399 47.1-64.2-1.8-3.6-1.8-8.099-.3-12.299 24.6-62.1-38.101-122.1-98.401-96.899 0 0 0 0-.298 0-9.001 3.9-17.1 9.3-24.001 16.199-5.7 6-15.3 6-20.999 0-6-5.7-6-15.3-.3-21s11.999-10.499 18.6-14.399c-1.201-1.199-2.1-2.1-3.3-2.999-18.301-17.701-44.702-16.201-60.901-1.8v-35.101c32.401-14.399 73.2-2.1 92.701 27.001 80.097-21.603 153.297 54.898 126.897 134.097z" fill="#fabe2c"/></g></svg>