
<svg id="Layer_1" data-name="Layer 1" xmlns="http://www.w3.org/2000/svg" xmlns:xlink="http://www.w3.org/1999/xlink" viewBox="0 0 165.72 130.57" width="406" height="306" class="illustration styles_illustrationTablet__1DWOa"><defs><linearGradient id="linear-gradient" x1="112.39" y1="84.59" x2="115.37" y2="48.83" gradientUnits="userSpaceOnUse"><stop offset="0.01"></stop><stop offset="0.08" stop-opacity="0.69"></stop><stop offset="0.21" stop-opacity="0.32"></stop><stop offset="1" stop-opacity="0"></stop></linearGradient><linearGradient id="linear-gradient-2" x1="102.11" y1="70.71" x2="112.72" y2="37.22" xlink:href="#linear-gradient"></linearGradient><linearGradient id="linear-gradient-3" x1="-58.18" y1="334.05" x2="-85.23" y2="311.44" gradientTransform="translate(215.85 -254.06) rotate(5.04)" xlink:href="#linear-gradient"></linearGradient><linearGradient id="linear-gradient-4" x1="30.19" y1="52.82" x2="124.07" y2="71.49" gradientUnits="userSpaceOnUse"><stop offset="0.01"></stop><stop offset="0.13" stop-opacity="0.69"></stop><stop offset="0.25" stop-opacity="0.32"></stop><stop offset="1" stop-opacity="0"></stop></linearGradient><linearGradient id="linear-gradient-5" x1="70.48" y1="49.47" x2="64.78" y2="95.84" xlink:href="#linear-gradient-4"></linearGradient><linearGradient id="linear-gradient-6" x1="25.44" y1="64.52" x2="109.06" y2="231.77" xlink:href="#linear-gradient"></linearGradient><linearGradient id="linear-gradient-7" x1="70.72" y1="93.7" x2="136.2" y2="81.86" xlink:href="#linear-gradient-4"></linearGradient><linearGradient id="linear-gradient-8" x1="152.97" y1="92.09" x2="74.08" y2="81.05" xlink:href="#linear-gradient-4"></linearGradient><linearGradient id="linear-gradient-9" x1="362.8" y1="-151.94" x2="370" y2="-154.28" gradientTransform="translate(-274.08 254.53) rotate(-9.52)" xlink:href="#linear-gradient-4"></linearGradient><linearGradient id="linear-gradient-10" x1="360.02" y1="-149.42" x2="374.22" y2="-151.35" gradientTransform="translate(-283.46 239.87) rotate(-9.52)" xlink:href="#linear-gradient-4"></linearGradient><linearGradient id="linear-gradient-11" x1="356.46" y1="-142.2" x2="375.1" y2="-138.08" gradientTransform="translate(-274.08 254.53) rotate(-9.52)" xlink:href="#linear-gradient-4"></linearGradient><linearGradient id="linear-gradient-12" x1="369.53" y1="-155.48" x2="381.05" y2="-151.93" gradientTransform="translate(-274.08 254.53) rotate(-9.52)" xlink:href="#linear-gradient-4"></linearGradient></defs><title>14</title><path d="M33.54,23.71c-7.89,4.46-14.88,10.87-18.87,19S10,59.88,9.58,68.8c-.42,10-.37,20,2.08,29.7,2.27,8.93,6.54,17.23,11.33,25.1,3.52,5.78,7.49,11.54,13.17,15.23a38.4,38.4,0,0,0,13.57,5,75,75,0,0,0,47.77-6.54c11-5.52,20.56-13.75,32.17-17.66,10.19-3.43,21.63-3.44,30.81-9,11.44-7,16.68-21.94,13.88-35.05s-12.65-24-24.59-30.12C143,42,135.68,40,128.86,36.77s-13.05-7.65-19.7-11.24C85.4,12.68,57.48,10.17,33.54,23.71Z" transform="translate(-9.38 -14.66)" fill="#C23E64" opacity="0.18" style="isolation: isolate;"></path><path d="M115,60l1.33.56a2,2,0,0,1,1.17.87,2,2,0,0,1-.07,1.37c-.18.59-.39,1.18-.62,1.76-.3.77-.65,1.53-.88,2.32a16.81,16.81,0,0,0-.24,6.09c0,.66-.84,1-1.49,1.09a7.22,7.22,0,0,1-3.69-.19.79.79,0,0,1-.3-.16.68.68,0,0,1-.14-.49C110,72.13,110,71,109.85,70a8.85,8.85,0,0,0-.33-1.61,15.38,15.38,0,0,1-.26-1.56c-.09-.42-.22-.83-.29-1.25a2.37,2.37,0,0,1,.09-1.27c.18-.44.43-.85.65-1.27a12.57,12.57,0,0,0,.62-1.41,3.89,3.89,0,0,1,.43-1,2.53,2.53,0,0,1,1.95-.9A5.37,5.37,0,0,1,115,60Z" transform="translate(-9.38 -14.66)" fill="#ffbbab"></path><path d="M106.81,54.83a6.18,6.18,0,0,1-.91-1.57,8.67,8.67,0,0,1-.46-2.24,1.88,1.88,0,0,1,.06-.82c.13-.36.45-.63.55-1a.17.17,0,0,0,0-.12S106,49,105.92,49l-.42-.11a1.43,1.43,0,0,0-.16-1,.62.62,0,0,0-.58-.36c-.26,0-.39.33-.61.48s-.46.17-.65.32a1.2,1.2,0,0,0-.32.8,6.38,6.38,0,0,0,.32,2.12,19.34,19.34,0,0,0,.58,2.36,19.16,19.16,0,0,0,3.62,6.51c.62.73,3,3.61,3.94,2.87,1.33-1,.46-2.65-.46-3.44A26.38,26.38,0,0,1,106.81,54.83Z" transform="translate(-9.38 -14.66)" fill="#ffbbab"></path><path d="M112.4,59.52c-.45.69-.89,1.4-1.3,2.12a1,1,0,0,0-.18.75.74.74,0,0,0,.38.38,2.27,2.27,0,0,0,2.18-.18A7.49,7.49,0,0,0,115.13,61a3.38,3.38,0,0,1,.92-.85,1.17,1.17,0,0,1,1.2,0,.73.73,0,0,1,.17,1.08c0-.32-.39-.52-.7-.44a1.44,1.44,0,0,0-.71.63,10.59,10.59,0,0,0-.66,1.07,3.11,3.11,0,0,0-.35.87,2.84,2.84,0,0,0,.75,2.08,2.68,2.68,0,0,1,.44.74,2.59,2.59,0,0,1-.1,1.29,17.5,17.5,0,0,0-.27,5.36,1.12,1.12,0,0,1-.21,1,1,1,0,0,1-.68.21c-1.15,0-2.29-.26-3.45-.23a19.17,19.17,0,0,1-2.14.11.31.31,0,0,1-.33-.41,22.3,22.3,0,0,0,.15-6,13.78,13.78,0,0,1-.44-2.77,1.36,1.36,0,0,1,.11-.6,2.15,2.15,0,0,1,.35-.5,7.92,7.92,0,0,0,1.58-3.11" transform="translate(-9.38 -14.66)" fill="#fff"></path><path d="M115.31,68.77a1.08,1.08,0,0,1-.39.88,1.83,1.83,0,0,0-.24.13c-.15.14-.13.38-.16.58a3.06,3.06,0,0,1-.58,1,.89.89,0,0,0,0,1.09c.18.18.48.21.63.42s0,.89.31,1.1a.46.46,0,0,0,.57-.18,1.31,1.31,0,0,0,.17-.62q.35-3.37.64-6.77a.73.73,0,0,0-.19-.67c-.15-.21-.35-.61-.57-.72-.25.37-.06,1.17-.06,1.6C115.4,67.34,115.37,68.06,115.31,68.77Z" transform="translate(-9.38 -14.66)" fill="#020202" opacity="0.1"></path><path d="M109.83,55.62a1.26,1.26,0,0,0-.25.58,1.14,1.14,0,0,0,.16.42,2.83,2.83,0,0,1,.25,1,1.36,1.36,0,0,0,.19.74,1.14,1.14,0,0,0,.88.31h.74a.5.5,0,0,1,.27,0,.44.44,0,0,1,.19.19,5.3,5.3,0,0,1,.41,1.7.62.62,0,0,0,.13.27A.52.52,0,0,0,113,61a2.21,2.21,0,0,0,1.62,0,.62.62,0,0,0,.33-.24.68.68,0,0,0,0-.45,8.15,8.15,0,0,0-.26-1.19,4.32,4.32,0,0,1-.32-1.61c0-.49.27-.94.35-1.42a2.39,2.39,0,0,0-1.41-2.46,2.84,2.84,0,0,0-2.46.18c-.27.14-.49.21-.62.5S110.07,55.21,109.83,55.62Z" transform="translate(-9.38 -14.66)" fill="#ffbbab"></path><path d="M109.9,52.64a2.6,2.6,0,0,1-.07-.56c0-.64.37-1.37,1-1.39.45,0,.85.34,1.31.34a3.73,3.73,0,0,0,.56-.12,3.27,3.27,0,0,1,1.46,0,4.05,4.05,0,0,1,2.58,1.62,2.74,2.74,0,0,1,.1,3c-.33.5-.84.86-1.19,1.35a10.13,10.13,0,0,1-.55.89c-.18.21-.6.55-.9.4s-.32-.64-.53-.85a7.31,7.31,0,0,0,.59-.52.7.7,0,0,0,.16-.72c-.12-.24-.53-.29-.63,0a2.2,2.2,0,0,0-.7-1.82.9.9,0,0,0-.26-.22.91.91,0,0,0-.33,0c-.31,0-.61,0-.92,0-.53,0-.79.15-1.17-.3A2.42,2.42,0,0,1,109.9,52.64Z" transform="translate(-9.38 -14.66)" fill="#fc682d"></path><path d="M112.9,58.77a.32.32,0,0,1,.23.07.38.38,0,0,1,.08.24,7.39,7.39,0,0,1,0,1.33,1.07,1.07,0,0,1-.09.34.35.35,0,0,1-.29.18c-.13,0-.24-.11-.38-.14a.5.5,0,0,0-.42.1,1.87,1.87,0,0,0-.3.33A6.56,6.56,0,0,1,111,62a6.22,6.22,0,0,1,.8-1.71.81.81,0,0,1,.36-.35c.12,0,.27,0,.35-.13s0-.38-.09-.55-.32-.41-.18-.53S112.78,58.76,112.9,58.77Z" transform="translate(-9.38 -14.66)" fill="#e0a194"></path><path d="M122.54,56.41a11.24,11.24,0,0,0,1.1-1.19,6.84,6.84,0,0,0,1.5-4.25,1.25,1.25,0,0,1,0-.51.43.43,0,0,1,.35-.32.81.81,0,0,0,.22,0c.11,0,.16-.15.25-.23a.47.47,0,0,1,.5,0,1.38,1.38,0,0,1,.39.37c.16.22.32.45.46.68a1.19,1.19,0,0,1,.22.6,1.36,1.36,0,0,1-.49.89c-.31,0-.55.83-.63,1-.16.45-.34.9-.54,1.33a19,19,0,0,1-5.16,6.72c-.74.61-3.54,3-4.38,2.15-1.15-1.22,0-2.69,1-3.32A26,26,0,0,0,122.54,56.41Z" transform="translate(-9.38 -14.66)" fill="#ffbbab"></path><path d="M110.45,56.66a3.37,3.37,0,0,1,.55,0,.08.08,0,0,1,.07,0,.05.05,0,0,1,0,0,1.3,1.3,0,0,1,0,.87.67.67,0,0,1-.19.28.29.29,0,0,1-.32,0,.51.51,0,0,1-.16-.24,1.7,1.7,0,0,1-.17-.91.06.06,0,0,1,0,0l0,0a.78.78,0,0,1,.34,0" transform="translate(-9.38 -14.66)" fill="#fff"></path><path d="M109.27,57.34l-.09,0A.06.06,0,0,1,109.27,57.34Z" transform="translate(-9.38 -14.66)" fill="#C23E64"></path><path d="M125.93,54.89a3.6,3.6,0,0,1-.45,1.54A15.76,15.76,0,0,1,117.77,64a1.23,1.23,0,0,0-.51.32,1.26,1.26,0,0,0-.21.47c-.77,3-.6,6.06-1.15,9.06a1.18,1.18,0,0,1-.31.72,1.23,1.23,0,0,1-.91.21l-.65,0a44.76,44.76,0,0,1-4.61-.49,1.07,1.07,0,0,1-.71-.32,1.09,1.09,0,0,1-.1-.78,41,41,0,0,0-.25-6.17,17.68,17.68,0,0,1,0-3,3.12,3.12,0,0,0,0-1.52,1.42,1.42,0,0,0-.24-.4,15.5,15.5,0,0,0-1.38-1.17,6.28,6.28,0,0,1-1.38-2.63c-.46-1.38-.94-2.75-1.38-4.13-.33-1,.19-1.47.94-1.85.27-.14.57-.27.88-.41A15,15,0,0,0,106.94,55a5.1,5.1,0,0,0,2.24,2.26.06.06,0,0,0-.06.06.23.23,0,0,0,.1.19c.67.62,1.35,1.23,2,1.86a1.16,1.16,0,0,0,.45.29c.2,0,.89-.18.86.19a.13.13,0,0,1,0,.06c0,.13-.12.23-.14.36a.4.4,0,0,0,.23.38.81.81,0,0,0,.46.08,1.72,1.72,0,0,0,.51-.11c.27-.11.49-.3.75-.43a2.09,2.09,0,0,1,1.24-.07,5,5,0,0,0,1.34-.08,7.76,7.76,0,0,0,3.43-1.79,39.06,39.06,0,0,0,3.78-4.24,1.38,1.38,0,0,1,.49-.41.9.9,0,0,1,.94.24A1.34,1.34,0,0,1,125.93,54.89Z" transform="translate(-9.38 -14.66)" fill="#fff"></path><path d="M125.93,54.89a3.6,3.6,0,0,1-.45,1.54A15.76,15.76,0,0,1,117.77,64a1.23,1.23,0,0,0-.51.32,1.26,1.26,0,0,0-.21.47c-.77,3-.6,6.06-1.15,9.06a1.18,1.18,0,0,1-.31.72,1.23,1.23,0,0,1-.91.21l-.65,0a44.76,44.76,0,0,1-4.61-.49,1.07,1.07,0,0,1-.71-.32,1.09,1.09,0,0,1-.1-.78,41,41,0,0,0-.25-6.17,17.68,17.68,0,0,1,0-3,3.12,3.12,0,0,0,0-1.52,1.42,1.42,0,0,0-.24-.4,15.5,15.5,0,0,0-1.38-1.17,6.28,6.28,0,0,1-1.38-2.63c-.46-1.38-.94-2.75-1.38-4.13-.33-1,.19-1.47.94-1.85.27-.14.57-.27.88-.41A15,15,0,0,0,106.94,55a5.1,5.1,0,0,0,2.24,2.26.06.06,0,0,0-.06.06.23.23,0,0,0,.1.19c.67.62,1.35,1.23,2,1.86a1.16,1.16,0,0,0,.45.29c.2,0,.89-.18.86.19a.13.13,0,0,1,0,.06c0,.13-.12.23-.14.36a.4.4,0,0,0,.23.38.81.81,0,0,0,.46.08,1.72,1.72,0,0,0,.51-.11c.27-.11.49-.3.75-.43a2.09,2.09,0,0,1,1.24-.07,5,5,0,0,0,1.34-.08,7.76,7.76,0,0,0,3.43-1.79,39.06,39.06,0,0,0,3.78-4.24,1.38,1.38,0,0,1,.49-.41.9.9,0,0,1,.94.24A1.34,1.34,0,0,1,125.93,54.89Z" transform="translate(-9.38 -14.66)" fill="url(#linear-gradient)"></path><path d="M108.38,62.46c-.08-.12-.15-.25-.24-.36a15.5,15.5,0,0,0-1.38-1.17,6.28,6.28,0,0,1-1.38-2.63c-.46-1.38-.94-2.75-1.38-4.13-.33-1,.19-1.47.94-1.85a1.53,1.53,0,0,1,.36.51,6.45,6.45,0,0,1,.33,1.31A8.83,8.83,0,0,0,106.89,57c.59.94,1.15,1.9,1.74,2.84a.65.65,0,0,1,.08.17.55.55,0,0,1,0,.28,4.89,4.89,0,0,0-.22,1.14C108.44,61.67,108.57,62.33,108.38,62.46Z" transform="translate(-9.38 -14.66)" fill="url(#linear-gradient-2)"></path><path d="M125.93,54.89a3.6,3.6,0,0,1-.45,1.54A15.76,15.76,0,0,1,117.77,64a1.23,1.23,0,0,0-.51.32,1.26,1.26,0,0,0-.21.47c-.77,3-.6,6.06-1.15,9.06a1.18,1.18,0,0,1-.31.72,1.23,1.23,0,0,1-.91.21l-.65,0h0a1,1,0,0,1-.52-.19.86.86,0,0,1-.26-.52,22.86,22.86,0,0,1-.15-3.42,3.63,3.63,0,0,0-1.4-3,2.51,2.51,0,0,1-.63-.43.49.49,0,0,1,0-.68.6.6,0,0,1,.32-.1,15.6,15.6,0,0,0,1.94-.26,2.6,2.6,0,0,0,1.61-1c.33-.5.4-1.14.76-1.62a3.69,3.69,0,0,1,1.79-1,15,15,0,0,0,6.06-4.36c.72-.87,1.27-2.44,2.16-3.09A1.08,1.08,0,0,1,125.93,54.89Z" transform="translate(-9.38 -14.66)" fill="url(#linear-gradient-3)"></path><g id="lYf0vm"><path d="M75.45,93.56a87.51,87.51,0,0,1-13.1,7.82l-.65.08-.18,0A1.21,1.21,0,0,1,60.39,100a9.36,9.36,0,0,1,.19-1.08q.87-4.08,1.75-8.15a.46.46,0,0,0-.2-.54L51.66,82.1a.42.42,0,0,0-.51-.06c-.62.32-1.26.61-1.9.9C47,84,44.83,85,42.61,86A1.16,1.16,0,0,1,41,85.37l-.13-.3s0-.11,0-.16a23.88,23.88,0,0,1,.42-2.39A104.76,104.76,0,0,1,45.4,70.31a9.75,9.75,0,0,1,4.19-5.12,12.81,12.81,0,0,1,4.8-1.57,34.71,34.71,0,0,1,3.94-.34c.41,0,.83,0,1.25,0a.66.66,0,0,0,.44-.26c1-1.46,1.94-3,3-4.4a71.83,71.83,0,0,1,4.76-6.07,75.09,75.09,0,0,1,5.56-5.12,44.77,44.77,0,0,1,6.3-4.66,44,44,0,0,1,10.68-4.39c.72-.22,1.45-.41,2.18-.61L94,37.61l.27,0a1.85,1.85,0,0,1,1.54,1.26.59.59,0,0,1,0,.13,7.93,7.93,0,0,1,.14,1,25.78,25.78,0,0,1-.1,5.27A37.12,37.12,0,0,1,94,54.55a64.93,64.93,0,0,1-3.6,8.14,41.68,41.68,0,0,1-3.86,6.4A108.54,108.54,0,0,1,79,77.94a.56.56,0,0,0-.15.61c.18.78.35,1.56.49,2.34a18.14,18.14,0,0,1,.4,4.93A9.82,9.82,0,0,1,75.45,93.56Z" transform="translate(-9.38 -14.66)" fill="#fff"></path></g><path d="M58,86.26,51.7,81.35S54.41,73,58.33,63.28c.41,0,.83,0,1.25,0a.66.66,0,0,0,.44-.26c1-1.46,1.94-3,3-4.4a71.83,71.83,0,0,1,4.76-6.07,75.09,75.09,0,0,1,5.56-5.12,44.77,44.77,0,0,1,6.3-4.66,44,44,0,0,1,10.68-4.39c.72-.22,1.45-.41,2.18-.61L94,37.61l.27,0a1.85,1.85,0,0,1,1.54,1.26.59.59,0,0,1,0,.13C92.24,41.9,66.45,63.21,58,86.26Z" transform="translate(-9.38 -14.66)" fill="url(#linear-gradient-4)"></path><path d="M65.23,67.65A7.52,7.52,0,0,0,67.34,66c1.23,1.63,1.66,3.71,2.49,5.57a2.2,2.2,0,0,0,.86,1.12,2.43,2.43,0,0,0,1.14.18c.77,0,1.54,0,2.31,0a5.69,5.69,0,0,0,2.38-.51c.41-.2.81-.6.69-1s-.7-.58-1.17-.58a5.75,5.75,0,0,1-1.76-.16A3.08,3.08,0,0,1,72.67,69a12.9,12.9,0,0,1-.78-2.1,24.27,24.27,0,0,0-1.52-3.56A6.68,6.68,0,0,0,69,61.43a2.87,2.87,0,0,0-2.14-.8c-1.42.15-2.34,1.59-3.66,2.13a10.16,10.16,0,0,0-1.83.64,3.71,3.71,0,0,0-.94,1A10.8,10.8,0,0,0,58.76,68,9.65,9.65,0,0,0,65.23,67.65Z" transform="translate(-9.38 -14.66)" fill="url(#linear-gradient-5)"></path><path d="M67.36,59.79s2-.18,2.74.55A10.59,10.59,0,0,1,72.43,65c.18.66.4,1.3.55,2a6.61,6.61,0,0,0,.54,1.79,1.44,1.44,0,0,0,.77.69,2.68,2.68,0,0,0,.8.06,6.33,6.33,0,0,1,1,.07.39.39,0,0,1,.18.06.36.36,0,0,1,.07.17,1,1,0,0,1-.39.91,4.18,4.18,0,0,1-2.72.31c-1.1-.37-1.45-2.41-1.85-3.36-.58-1.39-1.2-2.75-1.86-4.1a1.27,1.27,0,0,0-.32-.47,1.37,1.37,0,0,0-.55-.21l-2.41-.52C66.47,61.53,67.11,60.65,67.36,59.79Z" transform="translate(-9.38 -14.66)" fill="#ffbbab"></path><circle cx="68.74" cy="45.81" r="5.91" fill="#C23E64"></circle><circle cx="68.74" cy="45.81" r="3.93" fill="#473f47"></circle><path d="M60.69,63.63,51.32,82.19l-8.89,4s-1.73,1.15-1.56-1.21S45.63,69.36,47,67.52,52.54,62.32,60.69,63.63Z" transform="translate(-9.38 -14.66)" fill="#C23E64"></path><path d="M78.77,78.15,62.33,90.77l-2.4,11.14a2.57,2.57,0,0,0,3.18.76c2.25-.75,13.88-8.5,15.33-10.25S82.07,85.71,78.77,78.15Z" transform="translate(-9.38 -14.66)" fill="#C23E64"></path><path d="M87.9,39.16l7.92,6.12s.41-6.34,0-7.67S87.9,39.16,87.9,39.16Z" transform="translate(-9.38 -14.66)" fill="#C23E64"></path><polygon points="42.33 66.7 40.76 69.49 51.31 77.59 53.74 75.51 42.33 66.7" fill="#C23E64"></polygon><path d="M50.14,84.14s-30.46,32.44-10.48,47.34,43.07,5.08,43.07,5.08-33,7.29-37.81-11.22c-2.81-10.83,15.77-33.09,15.77-33.09Z" transform="translate(-9.38 -14.66)" opacity="0.36" fill="url(#linear-gradient-6)"></path><path d="M114.74,113l7.42,4.51H103.32l7.42-4.8v-3.91l-1.24-1.47v-4.66c-12.14-4.2-11.85-30.24-11.85-30.24h30.18s0,.1,0,.31c.18,2.86,1.19,24.78-10.18,29.56a10.21,10.21,0,0,1-1.38.48v4l-1,1.29-.53.67Z" transform="translate(-9.38 -14.66)" fill="#C23E64"></path><path d="M98.93,95a2.79,2.79,0,0,1-2-.75,2.55,2.55,0,0,1-.49-2.66l1.38.4A1.21,1.21,0,0,0,98,93.24a1.61,1.61,0,0,0,1.52.25,1.17,1.17,0,0,0,.85-.68c-.12-.42-2-2-3.46-3.33-4-3.5-9-7.85-7.37-11.35a3.73,3.73,0,0,1,2.6-2.22c3.2-.74,7.44,2.7,7.62,2.85l-.91,1.11c-1.07-.88-4.31-3-6.39-2.56a2.33,2.33,0,0,0-1.62,1.43c-1.18,2.52,3.75,6.81,7,9.65,2.9,2.53,4.17,3.69,3.92,4.76a2.52,2.52,0,0,1-1.86,1.73A4,4,0,0,1,98.93,95Z" transform="translate(-9.38 -14.66)" fill="#C23E64"></path><path d="M127.49,95a3.45,3.45,0,0,1-.95-.13,2.52,2.52,0,0,1-1.87-1.73c-.25-1.07,1-2.23,3.92-4.76,3.26-2.84,8.19-7.13,7-9.65a2.19,2.19,0,0,0-1.52-1.32c-2.27-.5-6,2-7.21,3L126,79.29c.21-.16,5-4,8.44-3.27a3.57,3.57,0,0,1,2.51,2.11c1.64,3.5-3.36,7.85-7.37,11.35-1.49,1.3-3.34,2.91-3.46,3.43.08.25.49.48.85.58a1.56,1.56,0,0,0,1.51-.25,1.21,1.21,0,0,0,.13-1.24l1.39-.4a2.54,2.54,0,0,1-.5,2.66A2.78,2.78,0,0,1,127.49,95Z" transform="translate(-9.38 -14.66)" fill="#C23E64"></path><path d="M117.67,102.31a10.21,10.21,0,0,1-1.38.48v.1H109.5v-.22c-12.14-4.2-11.85-30.24-11.85-30.24h7.4s-3.28,17.25,7.75,27.7C115.15,102.37,116,101.81,117.67,102.31Z" transform="translate(-9.38 -14.66)" fill="#fff" opacity="0.28"></path><path d="M121.71,102.88a4.76,4.76,0,0,1-1.38,0Z" transform="translate(-9.38 -14.66)" fill="#C23E64"></path><polygon points="102.34 88.23 102.34 92.58 103.42 94.03 103.42 98.06 100.5 102.87 94.88 102.87 102.16 98.33 102.16 94.12 100.72 92.36 100.72 87.98 102.34 88.23" fill="#fff" opacity="0.28"></polygon><path d="M109.5,102.9v-.22c-12.14-4.2-11.85-30.24-11.85-30.24H99.8s-1.32,22.93,10.3,30.2l.4.26Z" transform="translate(-9.38 -14.66)" fill="url(#linear-gradient-7)"></path><path d="M116.29,102.79v4l-1,1.29C113.17,107.35,112.84,105.79,116.29,102.79Z" transform="translate(-9.38 -14.66)" fill="#C23E64"></path><path d="M117.67,102.31a10.21,10.21,0,0,1-1.38.48c11.24-9.75,5.42-30.35,5.42-30.35l6.14.31C128,75.61,129,97.53,117.67,102.31Z" transform="translate(-9.38 -14.66)" fill="url(#linear-gradient-8)"></path><path d="M61.76,46.06l.7-1.43a28.4,28.4,0,0,1,2.29-4.06c1.81-2.49,2.75-5.5,4.31-8.16a1,1,0,0,0,.18-.49c0-.39-.46-.61-.85-.71a3.19,3.19,0,0,0-1.59-.11,1.4,1.4,0,0,0-1.09,1.06,4.65,4.65,0,0,0,.07.91,4.13,4.13,0,0,1-.84,2.35L61,41.8a5.11,5.11,0,0,0-1,2.45A1.91,1.91,0,0,0,61.76,46.06Z" transform="translate(-9.38 -14.66)" fill="#ffbbab"></path><path d="M61.76,46.06a2.25,2.25,0,0,0,.33-1.65,7.52,7.52,0,0,1,0-2.27,4.29,4.29,0,0,0,.12-2.24s0-.07-.06-.09a.15.15,0,0,0-.16,0,1.16,1.16,0,0,0-.51.65c-.42,1-1.7,2.69-1.52,3.78A1.91,1.91,0,0,0,61.76,46.06Z" transform="translate(-9.38 -14.66)" fill="url(#linear-gradient-9)"></path><polygon points="49.11 32.05 51.17 29.44 53.62 31.68 51.31 33.76 49.11 32.05" fill="#C23E64"></polygon><polygon points="49.11 32.05 51.17 29.44 53.62 31.68 51.31 33.76 49.11 32.05" fill="url(#linear-gradient-10)"></polygon><path d="M63.76,49.93l.95.33c.33.11,1,.55,1.31.25s0-1.21,0-1.54a16.6,16.6,0,0,0-.85-3.47A2.2,2.2,0,0,1,65,43.72a1,1,0,0,1,.86-.51,1.06,1.06,0,0,1,.87.48,4.44,4.44,0,0,1,.29,1,1.33,1.33,0,0,1,.12.72,2.44,2.44,0,0,0-.14.34.83.83,0,0,0,.07.38l1.25,3.29a4,4,0,0,1,.38,2.27A2.39,2.39,0,0,1,66.2,53.3a7.63,7.63,0,0,1-3.35-1.16c-.11-.06-.24-.17-.2-.29a.3.3,0,0,1,.13-.12,2.24,2.24,0,0,0,.79-.77A1.18,1.18,0,0,0,63.76,49.93Z" transform="translate(-9.38 -14.66)" fill="#ffbbab"></path><path d="M60.94,44.58a.66.66,0,0,1-.19.36,1.14,1.14,0,0,1-.51.17,1,1,0,0,0-.51.21.28.28,0,0,0,0,.27L60,46.74A.39.39,0,0,1,60,47a.44.44,0,0,1-.25.21c-.4.19-.91.36-1.26.09a1.14,1.14,0,0,1-.35-.6,13.1,13.1,0,0,1-.92-4,2.89,2.89,0,0,1,.8-2.27,2.78,2.78,0,0,1,2-.61,1,1,0,0,1,.8.47c.11.2,0,.41.07.63a6.1,6.1,0,0,0,.17.95,3.81,3.81,0,0,0,.15.44,1.24,1.24,0,0,1,.14.38,1.63,1.63,0,0,1-.16.71,4,4,0,0,0-.21.84C61,44.38,61,44.48,60.94,44.58Z" transform="translate(-9.38 -14.66)" fill="#ffbbab"></path><path d="M61.25,39.69a1.57,1.57,0,0,1-.89,1.18c-1.08.51-2.62.44-2.21,2a4.24,4.24,0,0,1-.34,3.75c-.25.37-.56.69-.78,1.08-.36.6-.47,1.33-.86,1.91C55.39,50.76,53.81,51,52.43,51a3.8,3.8,0,0,0-1.54.29c-1.13.56-1.64,2.22-2.89,2.28S46.32,52,45.62,51.2a3.37,3.37,0,0,1-.69-3.74c1.29-2.64,5.5-2.48,7.09-5C53,41,53,39,54.7,38.06a6.37,6.37,0,0,1,5.91.28A1.28,1.28,0,0,1,61.25,39.69Z" transform="translate(-9.38 -14.66)" fill="#473f47"></path><path d="M63.1,58.45a1.23,1.23,0,0,0,.41.22,4.09,4.09,0,0,0,1.6.07,22.26,22.26,0,0,1,2.31,0,.9.9,0,0,1,.53.14c.26.22.18.63.07.95a42.62,42.62,0,0,1-1.67,4.28,3.58,3.58,0,0,1-1.1,1.56,3.34,3.34,0,0,1-1.3.47,22.08,22.08,0,0,1-2.81.39,5,5,0,0,1-2.71-.36,4.24,4.24,0,0,1-1.88-2.44,5.53,5.53,0,0,1-.27-3.09c.25-1.1.75-1.42.44-2.6a27.34,27.34,0,0,1-.86-4.47,11,11,0,0,1,.38-4.08A5.43,5.43,0,0,1,57,47.77a2.71,2.71,0,0,1,1.49-1.06,1.77,1.77,0,0,1,1.7.47c1.17,1.27,2.77,1.34,4.1,2.43a.43.43,0,0,1,.17.21.39.39,0,0,1,0,.28l-.87,2.09a3.23,3.23,0,0,1-.33.64c-.12.17-.27.31-.38.48A3.17,3.17,0,0,0,62.44,55C62.43,56,62.19,57.74,63.1,58.45Z" transform="translate(-9.38 -14.66)" fill="#C23E64"></path><path d="M61.83,59.79a1,1,0,0,1-1-.07c-.7-.52-.16-.88,0-1.42A5.65,5.65,0,0,0,61,56c-.11-1.49-.23-3-.34-4.48.06.37,1.82.89,2.51,1.36-.12.17-.27.31-.38.48-.78,1.14-.37,3.42-.35,4.71C62.49,58.69,62.41,59.47,61.83,59.79Z" transform="translate(-9.38 -14.66)" fill="url(#linear-gradient-11)"></path><path d="M69.94,40.55a6.89,6.89,0,0,1,0,3.48.5.5,0,0,1-.19.12.26.26,0,0,1-.17,0c-.45-.09-3-1.76-6-.71a1.1,1.1,0,1,1-.36-2.13S67.15,40,68,37.67c.11-.35.33-.48.58-.44a1,1,0,0,1,.43.2h0A8.8,8.8,0,0,1,69.94,40.55Z" transform="translate(-9.38 -14.66)" fill="#C23E64"></path><path d="M69.94,40.55a6.89,6.89,0,0,1,0,3.48.22.22,0,0,1-.15.12h0c-.4,0-1-1.5-1.28-3.35s-.26-3.3.07-3.57l.08,0c.11,0,.22.07.35.24h0A8.8,8.8,0,0,1,69.94,40.55Z" transform="translate(-9.38 -14.66)" fill="url(#linear-gradient-12)"></path><path d="M75.77,69.38a.58.58,0,0,0-.41.65c0,.16.19.32.12.47a.31.31,0,0,1-.23.15,4,4,0,0,1-2.84-.19.46.46,0,0,0,.12.45,1.57,1.57,0,0,0,.59.61,1.5,1.5,0,0,0,.52.1,6.63,6.63,0,0,0,3.87-1.31,1.12,1.12,0,0,0,.28-.25.34.34,0,0,0,0-.36c-.06-.15-.24-.2-.4-.23a8,8,0,0,0-.84-.08A1.94,1.94,0,0,0,75.77,69.38Z" transform="translate(-9.38 -14.66)" fill="#C23E64"></path></svg>