
<svg id="Layer_1" data-name="Layer 1" xmlns="http://www.w3.org/2000/svg" xmlns:xlink="http://www.w3.org/1999/xlink" viewBox="0 0 395.99 293.97" width="406" height="306" class="illustration styles_illustrationTablet__1DWOa"><defs><linearGradient id="linear-gradient" x1="152.44" y1="92.53" x2="152.44" y2="3.56" gradientTransform="matrix(1, 0, 0, -1, 0, 352)" gradientUnits="userSpaceOnUse"><stop offset="0.01"></stop><stop offset="0.08" stop-opacity="0.69"></stop><stop offset="0.21" stop-opacity="0.32"></stop><stop offset="1" stop-opacity="0"></stop></linearGradient><linearGradient id="linear-gradient-2" x1="294.03" y1="98.39" x2="303.6" y2="20.68" xlink:href="#linear-gradient"></linearGradient><linearGradient id="linear-gradient-3" x1="62.23" y1="108.04" x2="71.8" y2="30.33" xlink:href="#linear-gradient"></linearGradient><linearGradient id="linear-gradient-4" x1="-1587.61" y1="-184.82" x2="-1600.17" y2="-15.23" gradientTransform="translate(1770.67 372.53)" xlink:href="#linear-gradient"></linearGradient><linearGradient id="linear-gradient-5" x1="51.82" y1="139.52" x2="103.06" y2="143.18" xlink:href="#linear-gradient"></linearGradient><linearGradient id="linear-gradient-6" x1="120.05" y1="139.01" x2="215.78" y2="4.98" xlink:href="#linear-gradient"></linearGradient></defs><title>4</title><path d="M251.8,61.86c16.58,8.6,30.34,21.61,43.22,35.33,17.45,18.6,39.69,31.62,60,46.68,23.05,17.08,45.14,39,50.33,67.24,2.21,12,1.15,24.45-1.52,36.37A122.28,122.28,0,0,1,387.6,287c-15.8,24.48-41.17,42.08-69,50.81s-57.86,9-86.44,3.32c-14.93-2.95-29.68-7.5-44.9-7.89-11.53-.3-23,1.8-34.39,3.32-35.08,4.68-72.45,3.54-103.49-13.46C30,312.38,13.07,294.08,10.82,272c-2.58-25.3,13.73-47.1,30.25-64.34a242.46,242.46,0,0,0,35-46.41c4.32-7.37,8.76-13.21,11.41-21.58,2.54-8,4.11-16.29,7.1-24.16A68.87,68.87,0,0,1,110,91.61c10.94-11,25.22-18,39.2-24.77,8.2-4,16.42-7.94,25.06-10.78a103.15,103.15,0,0,1,61.53-.74A93.24,93.24,0,0,1,251.8,61.86Z" transform="translate(-10.55 -50.99)" fill="#C23E64" opacity="0.18" style="isolation: isolate;"></path><path d="M208.21,309.06a10.38,10.38,0,0,1,4.19,2.14c3.16,3,1.62,8.74-1.88,11.35s-8.12,3-12.47,3.39A400.19,400.19,0,0,0,155,332c-13.85,2.73-27.9,6.19-42.12,5.67-5-.18-17.3-.42-20.91-4.48-4.64-5.22,5.27-11.27,9.4-14.13,17-11.81,36.94-9.13,56.59-12.1C174.61,304.44,192,303.83,208.21,309.06Z" transform="translate(-10.55 -50.99)" fill="url(#linear-gradient)"></path><path d="M278.51,280.62c-2.31.72-4.66,1.88-5.91,3.95a20.09,20.09,0,0,0-1.44,3.83,16.64,16.64,0,0,1-10,10.05c-1.32.47-2.8.84-3.62,2a3.75,3.75,0,0,0,.1,4.14,8,8,0,0,0,3.4,2.68c4.87,2.28,10.54,2.28,15.82,1.24s10.31-3,15.44-4.67a109.7,109.7,0,0,1,20.36-4.35c5.47-.63,11-.86,16.28-2.54s10.26-5.09,12.28-10.21c-6.54-6.71-17-7.52-26.31-6.8C303,280.84,290.18,277,278.51,280.62Z" transform="translate(-10.55 -50.99)" fill="url(#linear-gradient-2)"></path><path d="M46.71,271c-2.31.73-4.66,1.88-5.91,3.95a20.12,20.12,0,0,0-1.45,3.83,16.56,16.56,0,0,1-10,10.05c-1.31.47-2.79.84-3.62,2a3.79,3.79,0,0,0,.1,4.14,7.82,7.82,0,0,0,3.41,2.68c4.87,2.28,10.54,2.28,15.82,1.24s10.31-3,15.44-4.67a109.7,109.7,0,0,1,20.36-4.35c5.46-.63,11-.86,16.28-2.53s10.26-5.1,12.28-10.22c-6.54-6.71-17-7.52-26.31-6.8C71.19,271.19,58.37,267.31,46.71,271Z" transform="translate(-10.55 -50.99)" fill="url(#linear-gradient-3)"></path><path d="M143.32,257.56c-6.1,1.1-12.36,2.3-17.62,5.58-1.81,1.12-3.57,2.69-3.83,4.78-.29,2.33,1.47,4.51,3.6,5.49a16.44,16.44,0,0,0,6.91,1l27.46.17,20.33.12c2.46,0,5.29-.36,7.71,0,4.43.74,8.27,2.9,13,3.12,6.09.29,12.16-.84,18.11-2,3.72-.72,7.53-1.48,10.78-3.45,1.31-.79,2.62-2,2.52-3.54a4,4,0,0,0-1.29-2.39c-4.63-4.78-12.22-4.39-18.71-5.86-6.9-1.57-13.13-5.55-20.12-6.71a52.21,52.21,0,0,0-9.68-.36c-5.77.14-11.6-.63-17.29.26C157.88,255,150.61,256.34,143.32,257.56Z" transform="translate(-10.55 -50.99)" fill="url(#linear-gradient-4)"></path><path d="M180.57,248.06c-5.12-1.16-4.12,6.11-5.47,8.8a14.42,14.42,0,0,1-3.16,3.63,6.48,6.48,0,0,0-2.3,4.12,1.46,1.46,0,0,0,.18.87,1.68,1.68,0,0,0,1,.62,11.8,11.8,0,0,0,8.76-.87,6.86,6.86,0,0,0,3-2.79,9.58,9.58,0,0,0,.77-4.13C183.5,255.28,184.84,249,180.57,248.06Z" transform="translate(-10.55 -50.99)" fill="#fdb9a9"></path><path d="M176,263s-14.57.62-8.4,5.2,15.4-1.11,16.32-2.2.17-2.83.17-2.83Z" transform="translate(-10.55 -50.99)" fill="#C23E64"></path><path d="M183.29,265c-1.3,1.58-8.15,3.71-11.17,3.49s-5.75-1.63-5.46-3.59,5.65-6.51,6.66-6.5,1.8,2.34,3.83,2.82a5.35,5.35,0,0,0,4.92-1.76,1.35,1.35,0,0,1,1.66-.43A6.45,6.45,0,0,1,183.29,265Z" transform="translate(-10.55 -50.99)" fill="#fff"></path><path d="M198.13,250.93c-5.12-1.19-4.12,6.07-5.47,8.76a14.3,14.3,0,0,1-3.16,3.64,6.57,6.57,0,0,0-2.3,4.12,1.46,1.46,0,0,0,.18.87,1.68,1.68,0,0,0,1,.62,11.85,11.85,0,0,0,8.76-.87,7,7,0,0,0,3-2.79,9.58,9.58,0,0,0,.77-4.13C201.06,258.09,202.4,251.84,198.13,250.93Z" transform="translate(-10.55 -50.99)" fill="#fdb9a9"></path><path d="M193.6,265.81s-14.57.61-8.4,5.2,15.39-1.12,16.28-2.16.17-2.84.17-2.84Z" transform="translate(-10.55 -50.99)" fill="#C23E64"></path><path d="M200.85,267.79c-1.3,1.59-8.14,3.71-11.17,3.5s-5.75-1.63-5.46-3.59,5.65-6.52,6.66-6.5,1.81,2.34,3.83,2.81a5.37,5.37,0,0,0,4.93-1.76,1.34,1.34,0,0,1,1.65-.43A6.45,6.45,0,0,1,200.85,267.79Z" transform="translate(-10.55 -50.99)" fill="#fff"></path><path d="M184.93,184.85l6.85,72,9.86-1.22c3.9-17.57,2.94-70.16,2.94-70.16Z" transform="translate(-10.55 -50.99)" fill="#473f47"></path><path d="M191.78,182.9l-6.85,72L175,253.71c-5.64-45.58-1-74-1-74Z" transform="translate(-10.55 -50.99)" fill="#473f47"></path><path d="M174.92,156.85c-.12-1.32-.47-2.63-.61-4a30.29,30.29,0,0,1,.15-8.18,31,31,0,0,1,2.58-8.31c1.14-2.29,3.19-3.26,5.51-4.4a19.46,19.46,0,0,1,6.2-2.11,15.77,15.77,0,0,1,4.6.26c4.65.88,10.78,3.28,14,7,2.39,2.75,2.67,6.7,2.74,10.35q.15,7.54-.31,15.08c0,.73-.08,1.46-.14,2.19-.43,5.51-.88,11.23-2.45,16.56-.49,1.67-1,3.35-2.56,4.25-3.64,2.11-9.21,1-13.14.4-5.21-.74-10.57-1.51-15.19-4a4.37,4.37,0,0,1-2.2-2.12c-.4-1.13.09-2.36.44-3.51,1.56-5.15.35-10.56.35-15.81,0-.95.12-1.92.12-2.87C175,157.33,174.92,157.09,174.92,156.85Z" transform="translate(-10.55 -50.99)" fill="#fff"></path><path d="M187.58,136.51a16.45,16.45,0,0,1,1.84-2.77.89.89,0,0,1,.34-.27.77.77,0,0,1,.37,0l4.46.71a1.09,1.09,0,0,1,.58.2,1,1,0,0,1,.3.46,4.31,4.31,0,0,1-.42,3.18,43.9,43.9,0,0,1-4.59,7.07,23.55,23.55,0,0,0-2.55,4.33c-.33.77-.44,1.64-.76,2.41s-1,.37-1.57.24l-6.88-1.45-3.44-.72c-.5-.1-.89-.1-.63-.69a1.49,1.49,0,0,1,.88-.73,9.15,9.15,0,0,1,1.65-.26,8.41,8.41,0,0,0,3.14-1.52,17.63,17.63,0,0,0,2.09-1.58C184.87,142.85,186,139.49,187.58,136.51Z" transform="translate(-10.55 -50.99)" fill="#020202" opacity="0.1" style="isolation: isolate;"></path><path d="M180.09,132.12a4.47,4.47,0,0,1,1.81-1.44c1.63-.56,3.25.81,4.93,1.2,1.26.28,2.83.12,3.58,1.18a3.28,3.28,0,0,1,0,2.9,97.78,97.78,0,0,1-5.2,13.2c-.82,1.71-1.89,3.24-2.76,4.88-1,1.81-1.21,3.72-2.62,5.34s-4,2.76-6.09,1.93a5.81,5.81,0,0,1-2.55-2.18c-2.61-3.77-.79-7.79.65-11.57C172.88,144.9,179.57,132.7,180.09,132.12Z" transform="translate(-10.55 -50.99)" fill="#fff"></path><path d="M202.58,186.14c-1.75.32-3.83,1.58-5.64,1.24a18,18,0,0,0-6.4-1.71c-3-.35-6.13-1.71-9-2.63a7.5,7.5,0,0,1-3.27-1.67c-1.75-1.82-1.23-4.74-.87-7.24a34.12,34.12,0,0,0-.23-11,24,24,0,0,0-1.33-5c-.55-1.26-1.41-2.08-1.2-3.58.18-1.32,1.09-2.87,2.57-3a4.44,4.44,0,0,1,2.21.68,20.62,20.62,0,0,0,6,2.11,13.58,13.58,0,0,0,13.13-6.2c1.37-2.16,2.73-12.13,6.56-10.75a9.24,9.24,0,0,1,5.21,5.79,24.3,24.3,0,0,1,.92,8c-.08,7-1.47,14.15-2.36,21.1-.35,2.63-.76,12.4-4.24,13.26C203.93,185.68,203.26,186,202.58,186.14Z" transform="translate(-10.55 -50.99)" fill="#020202" opacity="0.1" style="isolation: isolate;"></path><path d="M177.75,147.18a4.55,4.55,0,0,0-4.31-.27,4.14,4.14,0,0,0-2.28,3.62,5.63,5.63,0,0,0,1,2.86,4.51,4.51,0,0,0,1.27,1.41,4.27,4.27,0,0,0,2.73.57,5.55,5.55,0,0,0,2.45-.67c1.12-.63,2.57-2.43,2.2-3.84A8.26,8.26,0,0,0,177.75,147.18Z" transform="translate(-10.55 -50.99)" fill="#fdb9a9"></path><path d="M208.6,138.53c4.22,7,5.69,15.23,7.08,23.27a7.58,7.58,0,0,1,.13,3,5.28,5.28,0,0,1-3.81,3.63,15.54,15.54,0,0,1-5.48.29c-3.93-.25-8.59-.59-11.92-2.87-1.15-.78-2.16-1.75-3.33-2.5a29.35,29.35,0,0,0-3.55-1.77,40.85,40.85,0,0,1-6.64-3.88,5.11,5.11,0,0,1-1.74-1.78c-.68-1.36-.15-3,.38-4.4a1.67,1.67,0,0,1,.62-.91,1.72,1.72,0,0,1,1.3,0,127.36,127.36,0,0,0,17.16,3.84c1.59.25.89-1.5.68-2.41a36.54,36.54,0,0,1-.84-3.87,11.57,11.57,0,0,1,4-10.07,4.85,4.85,0,0,1,2.68-1.26A4.48,4.48,0,0,1,208.6,138.53Z" transform="translate(-10.55 -50.99)" fill="#fff"></path><path d="M187.26,122.15a16.8,16.8,0,0,1-.32-2.11c-.34-3-.63-6.12.84-8.7a7,7,0,0,1,12.21,0,9.47,9.47,0,0,1,1.07,5.27,28.77,28.77,0,0,1-1,5.36c-.48,1.86-1.7,3-2.4,4.71a6.81,6.81,0,0,0-.33,2.28,20,20,0,0,1,0,3.47,8.48,8.48,0,0,1-3.8,1.35,6.22,6.22,0,0,1-1.87-.32,1.34,1.34,0,0,1-.84-.55,1.48,1.48,0,0,1-.06-.78c0-.25.06-.49.06-.74a14.71,14.71,0,0,0-.06-3.75,5.65,5.65,0,0,0-1.93-2.42A5.67,5.67,0,0,1,187.26,122.15Z" transform="translate(-10.55 -50.99)" fill="#fdb9a9"></path><path d="M188,123.51a27.26,27.26,0,0,0,4-.81c.45-.13,1-.24,1.34.08a1.33,1.33,0,0,1,.3.62,3.7,3.7,0,0,1,.22,1.4,7.81,7.81,0,0,1-.33,1.17,1.43,1.43,0,0,0,.11,1.16c.32.44,1,.58,1.15,1.11s-.24.74-.36,1.11a7.8,7.8,0,0,0-.27,1.36,6,6,0,0,1-.24,1.57,1.85,1.85,0,0,1-1.23,1.08,1.9,1.9,0,0,1-1.61-.34,3.77,3.77,0,0,1-1-2.27l-.54-2.69a16.12,16.12,0,0,0-.72-2.75,12.57,12.57,0,0,0-1.12-1.77Z" transform="translate(-10.55 -50.99)" fill="#020202" opacity="0.1" style="isolation: isolate;"></path><path d="M102.87,175.11s.62,2.51-5.33,4.39-8.15-4.39-8.15-4.39S100.67,170.72,102.87,175.11Z" transform="translate(-10.55 -50.99)" fill="#2f3554"></path><path d="M72.27,238.54l.69-2.65,1.8-6.83a1.69,1.69,0,0,1,.42-.87c.27-.23,1.11,2.36,1.47,2.33a22.62,22.62,0,0,1,5.86.43c.52.1-1.59,29.46-1.77,32.34-.43,6.6-.08,19.65.89,19.57-1.93.16-5.88.38-6.71-.49-1.5-1.5,1.07-11.17-1.73-22.52a39.52,39.52,0,0,1-1.14-8.52C71.94,247.16,71.24,242.6,72.27,238.54Z" transform="translate(-10.55 -50.99)" fill="#efac88"></path><path d="M86.07,271.2a7.16,7.16,0,0,0,.54-1.24c.46-1.47.11-3,.21-4.48a15.36,15.36,0,0,0,0-2.35c-.16-2-.42-4-.67-6-.43-3.37-1.22-6.88-1.22-10.29,0-2.63,2.12-10.89,2.12-10.89l-2.12-10.77H95.69s1.38,9,1,10a21.16,21.16,0,0,0-1.37,6.38c0,3.87-.52,7.79-.82,11.65q-.51,6.33-1,12.66c-.12,1.52-.25,3-.37,4.55a14.85,14.85,0,0,0,1.21,6.51c.34.93.72,2.08.07,2.84s-2.07.5-3,0a26.48,26.48,0,0,0-4.18-2.29,5.45,5.45,0,0,1-1.64-.67c-1-.76-1-2.28-.54-3.45A21.29,21.29,0,0,1,86.07,271.2Z" transform="translate(-10.55 -50.99)" fill="#efac88"></path><path d="M93,145.21s-1.22-3.22,1.55,0,7.22,22.26,7.22,22.26-6.23,5.72-8,4.59S93,145.21,93,145.21Z" transform="translate(-10.55 -50.99)" fill="#2f3554"></path><path d="M90.33,114.84c3.49,1.44,4.34,6.61,4.09,9.88-.31,4.09-3.74,8.18-2.56,12.29a17.58,17.58,0,0,1,1.06,6.58c-.22,2.23-1.6,4.51-3.77,5a6,6,0,0,0-1.51.4,4,4,0,0,0-1.38,1.77,17.23,17.23,0,0,1-9.9,8.68c-4.31,1.31-9.41.3-12.46-3s-3.53-8.91-.63-12.35c.83-1,1.95-1.91,2-3.19a8.61,8.61,0,0,0-.27-1.75,5.35,5.35,0,0,1,2.88-5.54c1.62-.78,3.68-.74,4.93-2,1.4-1.45,1.06-3.76,1-5.77C73.18,115.33,81.11,111.05,90.33,114.84Z" transform="translate(-10.55 -50.99)" fill="#8b2f0c"></path><path d="M67.59,202.66c-.84,8.2.62,16.59,2.09,24.77.34,1.92.76,4,2.19,5.32a8.45,8.45,0,0,0,3.88,1.74,42.91,42.91,0,0,0,27.79-2.9l-2.21-20.4c-.58-5.43-1.21-11-3.16-16.12-.36-.95-6-10.39-4.66-11.2-2.66,1.64-5.75,1.4-8.8,2.11a39.88,39.88,0,0,0-10.32,4,10.39,10.39,0,0,0-6.13,8.32A40.27,40.27,0,0,0,67.59,202.66Z" transform="translate(-10.55 -50.99)" fill="#C23E64"></path><path d="M67.59,202.66c-.84,8.2.62,16.59,2.09,24.77.34,1.92.76,4,2.19,5.32a8.45,8.45,0,0,0,3.88,1.74,42.91,42.91,0,0,0,27.79-2.9l-2.21-20.4c-.58-5.43-1.21-11-3.16-16.12-.36-.95-6-10.39-4.66-11.2-2.66,1.64-5.75,1.4-8.8,2.11a39.88,39.88,0,0,0-10.32,4,10.39,10.39,0,0,0-6.13,8.32A40.27,40.27,0,0,0,67.59,202.66Z" transform="translate(-10.55 -50.99)" fill="url(#linear-gradient-5)"></path><path d="M90.15,136.51s-2.71,3.44-2.72,5.55a18,18,0,0,1-.57,4.14s-.43,2.52-1.83,1.54-6.32-7.58-6.32-7.58L84.08,133Z" transform="translate(-10.55 -50.99)" fill="#efac88"></path><path d="M98.49,197.28s-1.1-12.25-3.14-17.16a11.83,11.83,0,0,1-.4-5.51c.41-4.34,1.73-8.5,2.44-12.79a15.59,15.59,0,0,0-.42-5.73q-1.12-5.58-2.62-11.08a2.93,2.93,0,0,0-.59-1.29,3.06,3.06,0,0,0-1.19-.67l-5.35-2c.56,1.72,1.09,3.64.32,5.28a2.13,2.13,0,0,1-1,1.11c-1,.41-2-.25-2.8-1A11.46,11.46,0,0,1,81,142.25a12.35,12.35,0,0,1-.63-2.55c-.08-.62.1-1.52-.37-1.95-.76,1.34-2.33,2-3.52,2.93s-2.72,2-4.16,3a6.86,6.86,0,0,0-2.81,2.86,5.42,5.42,0,0,0,0,3.14c.25,1.14.64,2.25.85,3.4a40.54,40.54,0,0,1,.36,4.41A48,48,0,0,0,71.89,164a32.77,32.77,0,0,1,.37,3.95s2,7.44,1.6,9.26-4.14,8.85-4.35,11.93,1.2,9.55,1.2,9.55,3.46.23,7.3.38c4.52.17,12.72-1.74,13.33-2.35.8-.8,1.24-6.51,1.17-10.32,1.82,5.92,3.25,10.88,3.25,10.88Z" transform="translate(-10.55 -50.99)" fill="#2f3554"></path><path d="M71.87,204.77c.75.22,1,.89,1.56,1.73a41.58,41.58,0,0,1,2.07,3.61.46.46,0,0,1,0,.65.45.45,0,0,1-.27.12,3.89,3.89,0,0,1-2,.17,7.86,7.86,0,0,0,.7,4.7c.17.35.35.82.07,1.1a.83.83,0,0,1-.45.17,7,7,0,0,1-4.08-1,6.55,6.55,0,0,1-1.92-1.29,8.21,8.21,0,0,1-1.63-3.09,11.11,11.11,0,0,1,.21-2.15c0-.33.34-4.64.44-4.64l4.64-.18A2.3,2.3,0,0,1,71.87,204.77Z" transform="translate(-10.55 -50.99)" fill="#fdc099"></path><polygon points="61.35 152.07 61.72 153.94 55.27 155.06 55.27 152.91 61.35 152.07" fill="#fff"></polygon><path d="M71.9,178.47s5.13-12.34,4.43-16.69-3.65-14.5-5.83-14.41-2.87,3-2.87,5.7-4.38,27.05-4.66,29.3,2.47,23,2.47,23l7.3-1.61Z" transform="translate(-10.55 -50.99)" fill="#2f3554"></path><path d="M91.53,118.27a1,1,0,0,1,.3.27,8,8,0,0,1,1,2.92c1.41,5,3.33,9.76.58,14.72a3.18,3.18,0,0,1-.83,1.06,2.92,2.92,0,0,1-1.2.48,8.51,8.51,0,0,1-5.93-.94,31.12,31.12,0,0,1-3-1.64,3.23,3.23,0,0,1-1-1.14c-.22-.47-.58-.93-.43-1.48.11-.38.33-.71.41-1.1a2.93,2.93,0,0,0-.32-1.77,1,1,0,0,1-.1-.78c.18-.43.78-.4,1.24-.51a2.81,2.81,0,0,0,1.64-1.65,12.71,12.71,0,0,0,1-2.81,10.37,10.37,0,0,1,.72-2.44A6.51,6.51,0,0,1,88.39,119C89.18,118.54,90.66,117.73,91.53,118.27Z" transform="translate(-10.55 -50.99)" fill="#fdc099"></path><path d="M93.76,125.54l.45-.39s.13.28.29.25a2.05,2.05,0,0,0,.41-.16s-.25.36-.42.39a2.81,2.81,0,0,1-.71,0Z" transform="translate(-10.55 -50.99)" fill="#8a3c1f"></path><path d="M94.15,125.18l.19-.34s.15.14.25.08a1.29,1.29,0,0,0,.21-.19s-.06.28-.16.34a2.54,2.54,0,0,1-.47.14Z" transform="translate(-10.55 -50.99)" fill="#8a3c1f"></path><polygon points="105.57 106.57 86.86 106.57 70.82 126.85 88.47 126.14 105.57 106.57" fill="#C23E64"></polygon><path d="M105,174.15a4.21,4.21,0,0,1,.11-.58,9,9,0,0,0-.1-3.79,5.07,5.07,0,0,0-2.15-3.05,1.23,1.23,0,0,0-.26-.12.56.56,0,0,0-.56.53,1.84,1.84,0,0,0,.19.83,11.27,11.27,0,0,1,.69,2.56l-.94-1.07a2.55,2.55,0,0,0-1-.81.85.85,0,0,0-1.09.46,1.15,1.15,0,0,0,.1.73l.88,2.55A4.37,4.37,0,0,0,99,170.48,1.29,1.29,0,0,0,99,172a8.34,8.34,0,0,1,.81,1.46,6.34,6.34,0,0,1-.57-.79c-.21-.25-.61-.41-.85-.19s-.16.53-.09.8a16,16,0,0,1,.7,5.92l1.12-.25a9.69,9.69,0,0,0,2.49-1.25A5,5,0,0,0,105,174.15Z" transform="translate(-10.55 -50.99)" fill="#efac88"></path><path d="M221.72,172.48c.34-.29.87-.51,1.21-.22a1.1,1.1,0,0,1,.27.87v1.79c3.05-.93,5.35-3.38,7.59-5.64.47-.48,1.16-1,1.74-.66A1.28,1.28,0,0,1,233,170a6.87,6.87,0,0,0-.35,1.49c0,.82.59,1.53.67,2.34.09,1-.59,1.9-.68,2.9v1a3.83,3.83,0,0,1-.87,1.64,12.09,12.09,0,0,1-3.91,3.72,11.94,11.94,0,0,1-3.37.91l-3.63.62a2.19,2.19,0,0,1-1.08,0c-1.09-.37-1.43-2.15-1.39-3.13a7,7,0,0,1,1-2.57C220.14,176.84,219.91,174,221.72,172.48Z" transform="translate(-10.55 -50.99)" fill="#a67c52"></path><path d="M114.3,161.46c-.24-.38-.68-.74-1.09-.57a1.12,1.12,0,0,0-.52.75l-.55,1.7c-2.64-1.79-4.11-4.81-5.57-7.64-.31-.6-.81-1.29-1.47-1.14a1.24,1.24,0,0,0-.8,1.18,7.72,7.72,0,0,1-.11,1.52c-.24.78-1,1.29-1.34,2-.38.92,0,2-.21,3-.07.32-.21.63-.26,1a3.69,3.69,0,0,0,.35,1.82,12,12,0,0,0,2.62,4.72,12.22,12.22,0,0,0,2.94,1.87l3.29,1.67a2.35,2.35,0,0,0,1,.32c1.15,0,2-1.62,2.26-2.57a7.45,7.45,0,0,0-.15-2.74C114.51,166.1,115.56,163.49,114.3,161.46Z" transform="translate(-10.55 -50.99)" fill="#a67c52"></path><path d="M145.54,324.16a.79.79,0,0,0,.08.23c.45,1.16,1.88,1.55,3.12,1.69a25.27,25.27,0,0,0,3.48.17,5,5,0,0,0,1.63-.23,5.83,5.83,0,0,0,1.37-.83l3.34-2.48a13.37,13.37,0,0,0,2.55-2.26,4.51,4.51,0,0,0,1.1-3.14,2.73,2.73,0,0,0-2-2.48,8.2,8.2,0,0,0-2.1.06c-1.43.07-3.43-.52-4-2a3,3,0,0,0-1-1.61,2.59,2.59,0,0,0-1.55-.18,11.35,11.35,0,0,0-3.41.67,3.88,3.88,0,0,0-2.36,2.4,5.17,5.17,0,0,0-.15,1.57,29.36,29.36,0,0,1,0,3.25,33,33,0,0,0-.23,4.1A5.49,5.49,0,0,0,145.54,324.16Z" transform="translate(-10.55 -50.99)" fill="#262836"></path><path d="M178,324.58a56.8,56.8,0,0,1-6.93,2.64,4.37,4.37,0,0,1-3,.17,3,3,0,0,1-1.58-2,9.05,9.05,0,0,1-.26-2.59c0-1.45.6-2.57.83-3.95.21-1.2.38-2.41.55-3.61.24-1.72.46-3.44.68-5.17l6,1.29c.63.13,1.23,2.56,1.6,3.07a3.23,3.23,0,0,0,2.42,1.27c1,.05,2.07-.42,3.1-.25a3.13,3.13,0,0,1,2.38,2.94,5,5,0,0,1-1.62,3.62,12.33,12.33,0,0,1-3.43,2.18Z" transform="translate(-10.55 -50.99)" fill="#262836"></path><path d="M178.05,317.87a38.66,38.66,0,0,1-4.9,2.35l-.17.07c-2.78,1.08-5.89-3.28-5.89-3.28s-3.93-24.28-3.75-34.34c.12-6.91-1.51-16.76-4-34.63-.62,18.25-3.71,26.27-2.92,32.81,1.2,9.95-.23,34.66-.23,34.66s-2.63,4.81-5.52,4.16h-.17a36.21,36.21,0,0,1-5.1-1.57s-3.36-34-3.36-43,.37-17,.37-17l-1.75-28.43,7.49-10.87.61-.26.58-.57,8.3-6.09s0,1.42-.15,3.85l6.44,3.46.63.47.63.16L176,221.71s2.84,43.58,3.75,52.5S178.05,317.87,178.05,317.87Z" transform="translate(-10.55 -50.99)" fill="#C23E64"></path><path d="M178.05,317.87a38.66,38.66,0,0,1-4.9,2.35l-.17.07c-2.78,1.08-5.89-3.28-5.89-3.28s-3.93-24.28-3.75-34.34c.12-6.91-1.51-16.76-4-34.63-.62,18.25-3.71,26.27-2.92,32.81,1.2,9.95-.23,34.66-.23,34.66s-2.63,4.81-5.52,4.16h-.17a36.21,36.21,0,0,1-5.1-1.57s-3.36-34-3.36-43,.37-17,.37-17l-1.75-28.43,7.49-10.87.61-.26.58-.57,8.3-6.09s0,1.42-.15,3.85l6.44,3.46.63.47.63.16L176,221.71s2.84,43.58,3.75,52.5S178.05,317.87,178.05,317.87Z" transform="translate(-10.55 -50.99)" fill="url(#linear-gradient-6)"></path><path d="M169.09,145.87c.68.68,1.7,1.38,1.42,2.28-.15.48-.66.76-1,1.1A5.22,5.22,0,0,0,168,153a11.78,11.78,0,0,1-.57,4,3,3,0,0,1-3.24,1.95c-.79-.22-1.58-.9-2.34-.58-.58.25-.76,1-1.06,1.5a4.14,4.14,0,0,1-4,1.8,12.42,12.42,0,0,1-4.35-1.49,3.13,3.13,0,0,1-1.43-1.11,2.3,2.3,0,0,1-.16-1.55c.28-1.59,1.38-2.9,2.27-4.27A18.11,18.11,0,0,0,156,144.8c.16-2.1,0-4.41,1.35-6,1.83-2.21,6.25-2.19,8.52-.57C168.48,139.9,167,143.7,169.09,145.87Z" transform="translate(-10.55 -50.99)" fill="#a67c52"></path><path d="M166.38,136.36a3.25,3.25,0,0,1-1.17,1.27c-1,.59-1.86,1.28-2.83,1.93a4.3,4.3,0,0,0-1.8,2.64c-.41,2,.67,4.09,0,6-.23.38-.87.15-1.13-.23s-.39-.86-.78-1.09c-.66-.38-1.47.26-1.75,1a3.4,3.4,0,0,0,1.93,4.29c-.09.61-.89.86-1.51.77a6.72,6.72,0,0,0-1.89-.24c-1.43.27-2,2.31-3.4,2.52a3.26,3.26,0,0,1-2.47-1.43l-1.74-2a8.64,8.64,0,0,0-.91-1c-.39-.31-1-.33-1.36-.7s0-1.22-.35-1.68a1.75,1.75,0,0,0-.6-.36,2.44,2.44,0,0,1-1.26-2.81.75.75,0,0,0,0-.42c-.06-.18-.28-.27-.46-.36a2.61,2.61,0,0,1-1-3.27,5.41,5.41,0,0,1,1.21-1.78,1.83,1.83,0,0,1,1.74-.77l.27-2.5a3.92,3.92,0,0,1,.36-1.47c.57-1,1.88-1.26,3-1.39L148,131.2a1,1,0,0,1,0-.81,1,1,0,0,1,.6-.35,10.94,10.94,0,0,1,2.06-.34,8.82,8.82,0,0,1-.59-1.8.73.73,0,0,1,0-.36.63.63,0,0,1,.63-.33,2,2,0,0,0,.77,0s-.38-1.74-.4-1.9a2.1,2.1,0,0,1,.29-1.6,1.83,1.83,0,0,1,1.69-.63,5.61,5.61,0,0,1,1.77.64c-.06-.67.8-1,1.49-1.06a7.62,7.62,0,0,1,6.64,3.18,2.59,2.59,0,0,0,.42.51,3.32,3.32,0,0,0,1,.44,4,4,0,0,1,2.23,2.59,11.67,11.67,0,0,1,.35,3.48,10.43,10.43,0,0,1-.25,2.67A4.06,4.06,0,0,1,166.38,136.36Z" transform="translate(-10.55 -50.99)" fill="#2f3554"></path><path d="M156.89,158a39.81,39.81,0,0,1,4.62,2.31,3.53,3.53,0,0,1,1.17,1,1.64,1.64,0,0,1,.16,1.6c-.42.72-1.36.45-2.09.2-3.37-1.34-7-1.46-10.46-1.45a1.32,1.32,0,0,1-1.26-.53,1.65,1.65,0,0,1,.14-1.42C151,156.08,153.94,156.66,156.89,158Z" transform="translate(-10.55 -50.99)" fill="#fff"></path><path d="M222.25,186.15a14.12,14.12,0,0,1-3,4.61c-1.23,1.39-2.51,2.73-3.84,4a110.36,110.36,0,0,1-9.91,8.54c-2.47,1.91-5.11,3.79-8.19,4.39a6.36,6.36,0,0,1-3.69-.23,8.82,8.82,0,0,1-2.58-2c-.89-.88-11.09-12.62-11.26-12.62a2.7,2.7,0,0,0-1.25,1.43,27.91,27.91,0,0,0-2.69,9.71,28.67,28.67,0,0,0,0,4.54c.4,5.13,2.2,10.42.42,15.26a6.87,6.87,0,0,1-1.71,2.72A8.21,8.21,0,0,1,172,228a23.31,23.31,0,0,1-5.11,1.46,21.51,21.51,0,0,1-3,.33c-3.73.14-7.45-.59-11.18-.4-3.18.16-6.32,1-9.5.87a4,4,0,0,1-3.18-1.2,4.15,4.15,0,0,1-.65-1.84,117.65,117.65,0,0,1-1.91-20.6c0-3.19-.52-14.85-1.59-17-.13-.26-.27-.39-.41-.35-3.56,1-11.2,3-14.82,3.64a4.31,4.31,0,0,1-1.6.08,3.88,3.88,0,0,1-1.5-.76c-4.48-3.29-7-8.19-8.59-13.35-.31-1-.59-2-.85-3a2.27,2.27,0,0,1,1-3.06,1.11,1.11,0,0,1,.19-.09l6.71-4.32,5,6.38c1,1.24,2.14,2.58,3.73,2.76,2.18.22,3.82-1.76,5.16-3.45a44.31,44.31,0,0,1,16.26-12.71,13.09,13.09,0,0,1,2.92-1l.25-.06a3.12,3.12,0,0,1,.44-.09,13.1,13.1,0,0,1,3.9.23,222.08,222.08,0,0,1,25.23,5.79,6.39,6.39,0,0,1,4.71,3.34c2.33,3.51,4.6,7.06,6.94,10.57,2,3,4,6.8,7,9a81.75,81.75,0,0,0,18.22-10.27c.79-.59,1.79-1.23,2.7-.84a2.56,2.56,0,0,1,.77.58C221.39,180.79,223.33,182.89,222.25,186.15Z" transform="translate(-10.55 -50.99)" fill="#fff"></path><path d="M270.78,162.64a6.73,6.73,0,0,1-3.11,1.49,7.33,7.33,0,0,1-3.07-.54l-14.88-5a5.63,5.63,0,0,0-1.22,7.57c1.26,1.75,3.43,2.58,5.46,3.31l10.2,3.67a23.15,23.15,0,0,0,6.27,1.61c3,.2,5.93-.76,8.78-1.71,3.05-1,6.39-2.27,7.85-5.14s.4-6.65.83-10c.29-2.18,1.25-4.27,1.21-6.47-.05-1.88-1.55-4.71-3.79-4.32-1.93.34-3.22,3.7-4.24,5.11A47.52,47.52,0,0,1,270.78,162.64Z" transform="translate(-10.55 -50.99)" fill="#fff"></path><path d="M247.86,157.78a3.48,3.48,0,0,0-.7-1.07,1.12,1.12,0,0,0-1.19-.25,1.22,1.22,0,0,0-.57,1.17.67.67,0,0,1-.1.45.48.48,0,0,1-.46.06c-1.69-.33-3.4-.58-5.12-.75a1.55,1.55,0,0,0-.43,0,1.16,1.16,0,0,0-.73,1.42,5.37,5.37,0,0,0,.83,1.57c.87,1.43,1.2,3.32,2.6,4.25a4.62,4.62,0,0,0,2.82.59c1-.05,1.95-.23,2.93-.19a3.09,3.09,0,0,0,1.94-.21,1.7,1.7,0,0,0,.67-1.47,5.36,5.36,0,0,0-.93-2.46C248.88,159.87,248.36,158.83,247.86,157.78Z" transform="translate(-10.55 -50.99)" fill="#fdb9a9"></path><path d="M289.36,269.81c-5.7-1.29-4.58,6.8-6.08,9.8a16.41,16.41,0,0,1-3.52,4c-1.29,1.26-2.5,2.8-2.57,4.59a1.66,1.66,0,0,0,.2,1,2,2,0,0,0,1.13.68,13.14,13.14,0,0,0,9.76-1,7.69,7.69,0,0,0,3.35-3.11,10.67,10.67,0,0,0,.86-4.6C292.62,277.85,294.11,270.87,289.36,269.81Z" transform="translate(-10.55 -50.99)" fill="#fdb9a9"></path><path d="M284.32,286.45s-16.22.69-9.35,5.79,17.12-1.25,18.12-2.41.19-3.15.19-3.15Z" transform="translate(-10.55 -50.99)" fill="#C23E64"></path><path d="M292.39,288.69c-1.45,1.76-9.07,4.13-12.44,3.89s-6.4-1.82-6.07-4,6.29-7.25,7.41-7.24,2,2.61,4.26,3.15a6,6,0,0,0,5.49-2,1.5,1.5,0,0,1,1.84-.48C293.66,283.16,293.84,286.93,292.39,288.69Z" transform="translate(-10.55 -50.99)" fill="#fff"></path><path d="M308.91,273c-5.7-1.32-4.58,6.76-6.08,9.76a16.05,16.05,0,0,1-3.52,4.05c-1.29,1.26-2.49,2.8-2.56,4.59a1.64,1.64,0,0,0,.19,1,1.93,1.93,0,0,0,1.14.68,13.16,13.16,0,0,0,9.75-1,7.69,7.69,0,0,0,3.35-3.11,10.67,10.67,0,0,0,.86-4.6C312.17,281,313.66,274,308.91,273Z" transform="translate(-10.55 -50.99)" fill="#fdb9a9"></path><path d="M303.87,289.57s-16.22.68-9.35,5.78,17.13-1.23,18.12-2.4.19-3.16.19-3.16Z" transform="translate(-10.55 -50.99)" fill="#C23E64"></path><path d="M311.94,291.77c-1.45,1.78-9.07,4.14-12.44,3.9s-6.4-1.81-6.07-4,6.29-7.26,7.41-7.25,2,2.61,4.26,3.14a6,6,0,0,0,5.49-2,1.5,1.5,0,0,1,1.84-.48C313.21,286.27,313.39,290,311.94,291.77Z" transform="translate(-10.55 -50.99)" fill="#fff"></path><path d="M294.22,199.44l7.62,80.19,11-1.36c4.34-19.56,3.28-78.11,3.28-78.11Z" transform="translate(-10.55 -50.99)" fill="#473f47"></path><path d="M301.84,197.27l-7.62,80.19-11-1.36c-6.28-50.74-1.11-82.33-1.11-82.33Z" transform="translate(-10.55 -50.99)" fill="#473f47"></path><path d="M283.07,168.27c-.13-1.47-.52-2.93-.68-4.43a33.42,33.42,0,0,1,.17-9.1,34.56,34.56,0,0,1,2.87-9.26c1.27-2.54,3.56-3.62,6.13-4.89a21.67,21.67,0,0,1,6.91-2.35,17.59,17.59,0,0,1,5.12.28c5.17,1,12,3.66,15.53,7.74,2.66,3.07,3,7.46,3.06,11.52q.17,8.41-.35,16.8c0,.81-.1,1.62-.16,2.43-.48,6.14-1,12.51-2.73,18.44-.55,1.86-1.13,3.73-2.85,4.73-4,2.36-10.25,1.06-14.62.45-5.81-.83-11.77-1.69-16.92-4.5a4.94,4.94,0,0,1-2.45-2.36c-.45-1.26.1-2.63.49-3.91,1.74-5.73.39-11.75.39-17.6,0-1.06.14-2.14.14-3.2C283.11,168.8,283.07,168.53,283.07,168.27Z" transform="translate(-10.55 -50.99)" fill="#fff"></path><path d="M299.31,195.19a3,3,0,0,1,.43-1.75c.66-.81,1.92-.64,2.93-.39l6.53,1.62c2.47.61,6.26,3,6.9,5.49,2.51-1.76,3.16-4.72,3.63-7.75s.49-8.94,1-12a19.81,19.81,0,0,1-10.93,3.72c-3.71.1-8.37,0-9.72-4-1.55-4.68-2.09-9.59-3.12-14.39a.73.73,0,0,0-.89-.73l-14.1.15a1.41,1.41,0,0,0-.64.12c-.41.25-.41.84-.34,1.31a14.15,14.15,0,0,0,4.53,8.25c1.15,1,1.9,1.66,2.12,3.15.27,1.76.2,3.63.38,5.42a41.15,41.15,0,0,0,2.45,11C292.49,199.44,298.93,203.37,299.31,195.19Z" transform="translate(-10.55 -50.99)" fill="#020202" opacity="0.1" style="isolation: isolate;"></path><polygon points="284.91 148.27 263.92 148.27 261.31 115.63 282.31 115.63 284.91 148.27" fill="#C23E64"></polygon><path d="M294.24,130.19a41.49,41.49,0,0,1,.29-4.61c.14-1.33.35-2.67.61-4a2.69,2.69,0,0,1,1-2A12.63,12.63,0,0,1,303,117.7a5.52,5.52,0,0,1,6.31,4.59,5,5,0,0,1,.07.86c.36,3.37-.51,6.73-1,10.08a41.94,41.94,0,0,0-.41,7.84,9.21,9.21,0,0,1-4.24,1.5,6.4,6.4,0,0,1-2.08-.35,1.44,1.44,0,0,1-.93-.61,1.61,1.61,0,0,1-.07-.87,7.56,7.56,0,0,0,.07-.82h0a25.26,25.26,0,0,0-.09-4.6.45.45,0,0,0-.13-.35.58.58,0,0,0-.32,0h-.43a14.59,14.59,0,0,1-2.29,0,3.86,3.86,0,0,1-2.39-1.19A5,5,0,0,1,294.24,130.19Z" transform="translate(-10.55 -50.99)" fill="#fdb9a9"></path><path d="M297.35,120.31a2.17,2.17,0,0,1-1.66,0,3.33,3.33,0,0,1-1.33-1.3,4.28,4.28,0,0,1,1.16-5.91,6.62,6.62,0,0,1,5-1.1,3.84,3.84,0,0,1,1.5-.56,13.74,13.74,0,0,1,6.37-.39,10.38,10.38,0,0,1,3.34,1.67,8.38,8.38,0,0,1,2.43,2.46,11.9,11.9,0,0,1,1.13,4,23,23,0,0,1,.53,4.52,5.39,5.39,0,0,1-.37,1.94,5.75,5.75,0,0,1-1.27,1.82,11.58,11.58,0,0,1-2.67,2c-.68.38-1.47.77-1.7,1.52a5.36,5.36,0,0,0-.1,1.06,2.39,2.39,0,0,1-.6,1.41c-.24.26-.65.89-1,1s-.65-.33-.75-.69a6.87,6.87,0,0,1,.3-4.58,5,5,0,0,0,.75-2.34c-.08-.81-1.19-1.46-1.72-1s-.63,1.66-1.29,1.43c.75-2.34-.22-5.28-2.47-6.2a12.23,12.23,0,0,0-3.71-.52,10.14,10.14,0,0,0-1.82-.2Z" transform="translate(-10.55 -50.99)" fill="#dd8049"></path><path d="M299.77,134.91a26.7,26.7,0,0,0,5.19-1.54c.15,5.41-4.25,6.53-4.25,6.53h0a25.26,25.26,0,0,0-.09-4.6.49.49,0,0,0-.13-.35.58.58,0,0,0-.32,0h-.4Z" transform="translate(-10.55 -50.99)" fill="#de9f93"></path><path d="M325.77,165.49l2.5,10.94a8.85,8.85,0,0,1,.33,2.8c-.18,1.77-1.39,3.23-2.55,4.57a17.68,17.68,0,0,1-5.27,4.66,15.09,15.09,0,0,1-4.48,1.2,65.45,65.45,0,0,1-12.35.69,2.21,2.21,0,0,1-.95-.19,2.19,2.19,0,0,1-.72-.76,42.81,42.81,0,0,1-3.71-6.9,38.71,38.71,0,0,1,10.77-5.05,4.47,4.47,0,0,0,2.09-1,3.66,3.66,0,0,0,.75-1.68c1.63-7-2.13-14.8.88-21.33,1.71-3.72,5.36-7.71,8-2.74C323.55,155.23,324.63,160.51,325.77,165.49Z" transform="translate(-10.55 -50.99)" fill="#fff"></path><path d="M295.7,182.58a10.11,10.11,0,0,0-1.43-.9,1.67,1.67,0,0,0-1.62.07c-.22.16-.39.42-.66.51a1.23,1.23,0,0,1-.54,0l-3.34-.34a1.76,1.76,0,0,0-1.53.34c-.43.49-.17,1.26.12,1.85a51.34,51.34,0,0,0,2.86,5.06,3.86,3.86,0,0,0,.71.9,3.27,3.27,0,0,0,1.3.59,9.77,9.77,0,0,0,5.2-.22,14.67,14.67,0,0,0,4.6-2.49,2.29,2.29,0,0,0,.51-.52,1.91,1.91,0,0,0,.24-.8c.16-1.29-.25-3.37-1.93-3.28A6.75,6.75,0,0,1,295.7,182.58Z" transform="translate(-10.55 -50.99)" fill="#fdb9a9"></path><path d="M85,273.65a.64.64,0,0,1,.29-.25c.28-.09.54.16.73.38,1.73,2,4.32,3,6.8,3.9.15.05.34.1.46,0s.12-.21.17-.31a.67.67,0,0,1,.82-.21,2.84,2.84,0,0,1,.73.56c1,.92,2.43,1.29,3.53,2.11a1.51,1.51,0,0,1,.63.78,1.09,1.09,0,0,1-.3,1,1.9,1.9,0,0,1-1,.52,6.38,6.38,0,0,1-2.09.08q-5.19-.39-10.34-1.1a2.05,2.05,0,0,1-.77-.21,2,2,0,0,1-.73-1.8,18.37,18.37,0,0,1,.31-2.66A5.1,5.1,0,0,1,85,273.65Z" transform="translate(-10.55 -50.99)" fill="#262836"></path><path d="M75.22,279.86a3.47,3.47,0,0,0,1.29.44,5.89,5.89,0,0,0,2.4.09,2.11,2.11,0,0,0,1.66-1.56c0-.24.18-.58.39-.47a.35.35,0,0,1,.11.13,7.73,7.73,0,0,1,.86,3.46,3.81,3.81,0,0,1-.16,1.92A2.5,2.5,0,0,1,80,285.18a6.08,6.08,0,0,1-2.25,0c-.64-.1-1.27-.22-1.89-.38a1.61,1.61,0,0,1-.76-.32,1.7,1.7,0,0,1-.42-.64,7.41,7.41,0,0,1-.55-3.78,5.72,5.72,0,0,1,.14-.81c0-.12.08-.65.25-.59s.13.13.13.25a1.16,1.16,0,0,0,.07.37A1.34,1.34,0,0,0,75.22,279.86Z" transform="translate(-10.55 -50.99)" fill="#262836"></path><path d="M185.46,108.73a3,3,0,0,1,.35-2.19,2.68,2.68,0,0,1,1.23-.81,7.42,7.42,0,0,1,1.54-.4,2,2,0,0,0,.75-.22,2.34,2.34,0,0,0,.48-.56,3.68,3.68,0,0,1,3.11-1.19c1.15,0,2.28.34,3.43.39s2.54-.16,3.58.48a4,4,0,0,1,1.53,2.44,1.63,1.63,0,0,1,1.15.27c.63.58,0,1.76.55,2.45.26.33.72.47,1,.82a1.58,1.58,0,0,1,.15,1.09,8.2,8.2,0,0,1-.17,1.21c-.28,1.1-1,2-1.34,3.11-.17.58-.21,1.19-.35,1.77a10.8,10.8,0,0,1-1.85,3.54,20.91,20.91,0,0,0,.19-8,.6.6,0,0,0-.35-.59.64.64,0,0,0-.47.07,12.63,12.63,0,0,1-8.34.33,4.91,4.91,0,0,0-2.48-.4,8.33,8.33,0,0,0-1,.37,1.49,1.49,0,0,1-1.06,0,1.12,1.12,0,0,0-.11.47c-.65-.15-.61-1.09-.79-1.61A15.38,15.38,0,0,1,185.46,108.73Z" transform="translate(-10.55 -50.99)" fill="#2f3554"></path><path d="M202.73,118.26a.83.83,0,0,1,.13.34,2.8,2.8,0,0,1-.35,2A3.52,3.52,0,0,1,201,122a1.3,1.3,0,0,1-1.09.1,1.36,1.36,0,0,1-.59-1.06,3,3,0,0,1,.54-2.47,2.37,2.37,0,0,1,1.74-.7A1.42,1.42,0,0,1,202.73,118.26Z" transform="translate(-10.55 -50.99)" fill="#fdb9a9"></path><path d="M192.79,127.76c.05.41-.27.77-.31,1.18s0,.9,0,1.35a2.89,2.89,0,0,1-.54,1.58,3,3,0,0,1-1.45.81,10.1,10.1,0,0,1-3.52.64,10.51,10.51,0,0,1-1.48-.19c-.79-.13-2.84-.06-3-1.14a4.6,4.6,0,0,1,.48-1.7c.09-.29.17-.58.25-.87s.19-.72.27-1.08c.38-1.72.64-3.64,2-4.81.34-.31.91-.53,1.22-.19s.2.83.56.92a.78.78,0,0,0,.37-.06,9,9,0,0,1,4.27-.79,1.64,1.64,0,0,1,1.34.83c.39,1-.89,2-.58,3A2.31,2.31,0,0,1,192.79,127.76Z" transform="translate(-10.55 -50.99)" fill="#fdb9a9"></path><path d="M189.83,166.2a5.53,5.53,0,0,0-.88-.72c.2,3.71.81,7.59,3.08,10.53a22.69,22.69,0,0,1,1.65,2.12c1,1.68,1.08,3.86,2.36,5.34a7.46,7.46,0,0,0,4.1,2,5.64,5.64,0,0,0,4.12-.16,6.18,6.18,0,0,0,2.19-3.1c.87-2.07,2.47-5.06,1.15-7.3-.94-1.59-3.9-2.85-5.7-2.85a46,46,0,0,1-7.22-2.49,11.4,11.4,0,0,1-3.24-1.74C190.86,167.34,190.38,166.73,189.83,166.2Z" transform="translate(-10.55 -50.99)" fill="#fff"></path><path d="M136.81,181.52a20.49,20.49,0,0,0-.89,7,4.8,4.8,0,0,1-.11,1.07c-.13-.26-.27-.39-.41-.35-3.56,1-11.2,3-14.82,3.64a4.31,4.31,0,0,1-1.6.08,3.88,3.88,0,0,1-1.5-.76c-4.48-3.29-7-8.19-8.59-13.35a14.08,14.08,0,0,1,.59-2.63c2.13,1.15,3.24,3.51,4.57,5.54a22.86,22.86,0,0,0,4.68,5.23,3.41,3.41,0,0,0,1.26.74,3.63,3.63,0,0,0,1.67-.07C127.1,186.63,132.86,185.39,136.81,181.52Z" transform="translate(-10.55 -50.99)" fill="#020202" opacity="0.1" style="isolation: isolate;"></path><path d="M215.41,194.78a110.36,110.36,0,0,1-9.91,8.54c-2.47,1.91-5.11,3.79-8.19,4.39a6.36,6.36,0,0,1-3.69-.23,8.82,8.82,0,0,1-2.58-2c-.89-.88-11.09-12.62-11.26-12.62a2.7,2.7,0,0,0-1.25,1.43,27.91,27.91,0,0,0-2.69,9.71,28.67,28.67,0,0,0,0,4.54c.4,5.13,2.2,10.42.42,15.26a6.87,6.87,0,0,1-1.71,2.72A8.35,8.35,0,0,1,172,228a57.58,57.58,0,0,1-6.15,2.05,6.86,6.86,0,0,1-3.12.19c-.6-.12-2.11-1.19-2.53-1.14a8.29,8.29,0,0,0,6.69-5.61c.71-2.31.36-4.79.37-7.21a47.85,47.85,0,0,1,1-8.35l2.14-11.71c.72-4,2.18-9.68,6.34-11.48.83-.36,1.74.23,2.46.79,4.82,3.78,9.73,7.65,13.19,12.72,1,1.41,1.91,3,3.49,3.64s3.65.07,5.36-.62a64.16,64.16,0,0,0,7.43-3.57c1.8-1,4.18-3.27,6.42-3A1.67,1.67,0,0,1,215.41,194.78Z" transform="translate(-10.55 -50.99)" fill="#020202" opacity="0.1" style="isolation: isolate;"></path></svg>