<svg
        xmlns="http://www.w3.org/2000/svg"
        x="0"
        y="0"
        enableBackground="new 0 0 455.431 455.431"
        version="1.1"
        viewBox="0 0 455.431 455.431"
        xmlSpace="preserve"
      >
        <path
          fill="#5CA4DA"
          d="M405.493 412.764c-69.689 56.889-287.289 56.889-355.556 0-69.689-56.889-62.578-300.089 0-364.089s292.978-64 355.556 0 69.689 307.201 0 364.089z"
        ></path>
        <path
          fill="#6DAFE0"
          d="M229.138 313.209c-62.578 49.778-132.267 75.378-197.689 76.8-48.356-82.489-38.4-283.022 18.489-341.333 51.2-52.622 211.911-62.578 304.356-29.867 22.755 93.867-24.178 213.333-125.156 294.4z"
        ></path>
        <path
          fill="#FFF"
          d="M259.004 286.187h-61.156V256.32c0-11.378 1.422-19.911 4.267-24.178 2.844-5.689 8.533-12.8 18.489-22.756l27.022-28.444c4.267-4.267 5.689-11.378 5.689-18.489 0-7.111-1.422-14.222-7.111-18.489-4.267-5.689-9.956-7.111-17.067-7.111-7.111 0-12.8 2.844-17.067 8.533-4.267 5.689-7.111 14.222-8.533 24.178h-64c2.844-27.022 12.8-48.356 29.867-62.578s36.978-22.756 62.578-22.756 45.511 7.111 61.156 19.911c15.644 14.222 24.178 32.711 24.178 56.889 0 11.378-1.422 18.489-4.267 24.178l-5.689 11.378c-1.422 2.844-4.267 5.689-7.111 9.956l-8.533 8.533-18.489 18.489c-5.689 5.689-9.956 9.956-11.378 14.222-1.422 4.267-2.844 8.533-2.844 15.644v22.757zm-65.422 51.2c0-19.911 15.644-35.556 35.556-35.556s35.556 15.644 35.556 35.556-15.644 35.556-35.556 35.556-35.556-15.645-35.556-35.556z"
        ></path>
      </svg>