<svg id="Capa_1" enable-background="new 0 0 512 512" height="512" viewBox="0 0 512 512" width="512" xmlns="http://www.w3.org/2000/svg" xmlns:xlink="http://www.w3.org/1999/xlink"><linearGradient id="SVGID_1_" gradientUnits="userSpaceOnUse" x1="256" x2="256" y1="436" y2="46"><stop offset="0" stop-color="#addcff"/><stop offset=".5028" stop-color="#eaf6ff"/><stop offset="1" stop-color="#eaf6ff"/></linearGradient><linearGradient id="SVGID_2_" gradientUnits="userSpaceOnUse" x1="256" x2="256" y1="466" y2="46"><stop offset="0" stop-color="#5558ff"/><stop offset="1" stop-color="#00c0ff"/></linearGradient><g><g><g><path d="m497 46h-46l-15 30-15-30h-30l-15 30-15-30h-30l-15 30-15-30h-286c-8.284 0-15 6.716-15 15v75c0 16.569 13.431 30 30 30v270h452v-270c16.569 0 30-13.431 30-30v-75c0-8.284-6.716-15-15-15z" fill="url(#SVGID_1_)"/></g></g><g><g><path d="m0 136v315c0 8.399 6.599 15 15 15h482c8.401 0 15-6.601 15-15v-315zm256 180h-16.5c-2.1 9.6-5.7 18.3-11.1 26.4l11.699 11.698c6 5.7 6 15.3 0 21-4.89 5.438-14.46 6.543-20.999 0l-11.7-11.7c-8.1 5.402-16.8 9.002-26.4 11.102v16.5c0 8.399-6.599 15-15 15s-15-6.601-15-15v-16.5c-9.6-2.1-18.3-5.7-26.4-11.102l-11.7 11.7c-6.485 6.489-16.058 5.493-20.999 0-6-5.7-6-15.3 0-21l11.699-11.698c-5.4-8.101-9-16.8-11.1-26.4h-16.5c-8.401 0-15-6.601-15-15 0-8.401 6.599-15 15-15h16.5c2.1-9.6 5.7-18.3 11.1-26.4l-11.699-11.7c-6-5.7-6-15.3 0-21 5.698-6 15.298-6 20.999 0l11.7 11.701c8.101-5.4 16.8-9 26.4-11.1v-16.501c0-8.401 6.599-15 15-15s15 6.599 15 15v16.5c9.6 2.1 18.3 5.7 26.4 11.1l11.7-11.701c5.7-6 15.3-6 20.999 0 6 5.7 6 15.3 0 21l-11.699 11.7c5.4 8.101 9 16.8 11.1 26.4h16.5c8.401 0 15 6.599 15 15 0 8.4-6.599 15.001-15 15.001zm180 60h-120c-8.401 0-15-6.601-15-15 0-8.401 6.599-15 15-15h120c8.401 0 15 6.599 15 15 0 8.399-6.599 15-15 15zm0-60h-120c-8.401 0-15-6.601-15-15 0-8.401 6.599-15 15-15h120c8.401 0 15 6.599 15 15 0 8.399-6.599 15-15 15zm0-60h-120c-8.401 0-15-6.601-15-15 0-8.401 6.599-15 15-15h120c8.401 0 15 6.599 15 15 0 8.399-6.599 15-15 15zm-270 30c-8.284 0-15 6.716-15 15s6.716 15 15 15 15-6.716 15-15-6.716-15-15-15zm270-180c8.401 0 15-6.601 15-15v-45h-30v45c0 8.399 6.599 15 15 15zm-60 0c8.401 0 15-6.601 15-15v-45h-30v45c0 8.399 6.599 15 15 15zm-60 0c8.401 0 15-6.601 15-15v-45h-30v45c0 8.399 6.599 15 15 15z" fill="url(#SVGID_2_)"/></g></g></g></svg>