<?xml version="1.0" encoding="iso-8859-1"?>
<!-- Generator: Adobe Illustrator 19.0.0, SVG Export Plug-In . SVG Version: 6.00 Build 0)  -->
<svg version="1.1" id="Capa_1" xmlns="http://www.w3.org/2000/svg" xmlns:xlink="http://www.w3.org/1999/xlink" x="0px" y="0px"
	 viewBox="0 0 512.001 512.001" style="enable-background:new 0 0 512.001 512.001;" xml:space="preserve">
<g>
	<path style="fill:#37474F;" d="M106.689,0.001c-5.891,0-10.667,4.776-10.667,10.667v42.667c0,5.891,4.776,10.667,10.667,10.667
		c5.891,0,10.667-4.776,10.667-10.667V10.667C117.356,4.776,112.58,0.001,106.689,0.001z"/>
	<path style="fill:#37474F;" d="M149.355,42.667h-42.667c-5.891,0-10.667-4.776-10.667-10.667s4.776-10.667,10.667-10.667h42.667
		c5.891,0,10.667,4.776,10.667,10.667S155.247,42.667,149.355,42.667z"/>
	<path style="fill:#37474F;" d="M149.355,64.001c-5.891,0-10.667-4.776-10.667-10.667V10.667c0-5.891,4.776-10.667,10.667-10.667
		c5.891,0,10.667,4.776,10.667,10.667v42.667C160.022,59.225,155.247,64.001,149.355,64.001z"/>
	<path style="fill:#37474F;" d="M234.689,21.334h-42.667c-5.891,0-10.667-4.776-10.667-10.667s4.776-10.667,10.667-10.667h42.667
		c5.891,0,10.667,4.776,10.667,10.667S240.58,21.334,234.689,21.334z"/>
	<path style="fill:#37474F;" d="M213.355,64.001c-5.891,0-10.667-4.776-10.667-10.667V10.667c0-5.891,4.776-10.667,10.667-10.667
		c5.891,0,10.667,4.776,10.667,10.667v42.667C224.022,59.225,219.247,64.001,213.355,64.001z"/>
	<path style="fill:#37474F;" d="M341.355,64.001c-5.891,0-10.667-4.776-10.667-10.667V42.667l-12.8,17.067
		c-3.878,4.713-10.842,5.39-15.555,1.512c-0.552-0.454-1.058-0.96-1.512-1.512l-12.8-17.067v10.667
		c0,5.891-4.776,10.667-10.667,10.667c-5.891,0-10.667-4.776-10.667-10.667V10.667c0-5.891,4.776-10.667,10.667-10.667
		c3.357,0,6.519,1.581,8.533,4.267l23.467,31.275l23.467-31.275c3.535-4.713,10.221-5.668,14.933-2.133
		c2.686,2.014,4.267,5.176,4.267,8.533v42.667C352.022,59.225,347.247,64.001,341.355,64.001z"/>
	<path style="fill:#37474F;" d="M416.022,64.001h-32c-5.891,0-10.667-4.776-10.667-10.667V10.667
		c0-5.891,4.776-10.667,10.667-10.667c5.891,0,10.667,4.776,10.667,10.667v32h21.333c5.891,0,10.667,4.776,10.667,10.667
		S421.913,64.001,416.022,64.001z"/>
</g>
<path style="fill:#FF5722;" d="M434.582,110.166c-2.02-2.227-4.887-3.497-7.893-3.499H85.355
	c-5.891-0.026-10.688,4.728-10.714,10.619c-0.002,0.351,0.014,0.701,0.047,1.05l32,341.333c0.413,4.379,3.471,8.055,7.701,9.259
	l149.333,42.667c0.964,0.274,1.963,0.41,2.965,0.405c1.144-0.001,2.282-0.181,3.371-0.533l128-42.667
	c4.015-1.336,6.86-4.918,7.253-9.131l32-341.333C437.592,115.35,436.601,112.384,434.582,110.166z"/>
<path style="fill:#FAFAFA;" d="M266.689,426.667c-0.989-0.006-1.973-0.15-2.923-0.427L189.1,404.907
	c-3.665-1.043-6.495-3.963-7.424-7.659l-10.667-42.667c-1.558-5.681,1.785-11.55,7.466-13.108c5.681-1.558,11.55,1.785,13.108,7.466
	c0.044,0.159,0.083,0.318,0.119,0.479l9.173,36.693l65.579,18.731l54.315-18.112l8.789-88.064H170.689
	c-5.404,0.043-9.986-3.962-10.667-9.323l-10.667-85.333c-0.742-5.844,3.393-11.183,9.237-11.926c0.474-0.06,0.952-0.089,1.429-0.085
	h202.667c5.891,0,10.667,4.776,10.667,10.667c0,5.891-4.776,10.667-10.667,10.667H172.097l8,64h161.259
	c5.891-0.03,10.69,4.722,10.72,10.613c0.002,0.374-0.016,0.748-0.053,1.12l-10.667,106.667c-0.414,4.183-3.245,7.733-7.232,9.067
	l-64,21.333C269.014,426.492,267.855,426.673,266.689,426.667z"/>
<g>
</g>
<g>
</g>
<g>
</g>
<g>
</g>
<g>
</g>
<g>
</g>
<g>
</g>
<g>
</g>
<g>
</g>
<g>
</g>
<g>
</g>
<g>
</g>
<g>
</g>
<g>
</g>
<g>
</g>
</svg>
